<svg width="170" height="40" viewBox="0 0 170 40" fill="none" xmlns="http://www.w3.org/2000/svg">
<path d="M36.4742 19.0946C36.0918 19.4785 35.7991 19.9418 35.6167 20.4514C35.4343 20.9611 35.3668 21.5047 35.4189 22.0434L35.4008 22.0253C35.4544 22.6594 35.3687 23.2975 35.1497 23.8952C34.9307 24.4928 34.5836 25.0355 34.1328 25.4856C33.6818 25.9355 33.1379 26.2819 32.539 26.5004C31.9401 26.7189 31.3006 26.8045 30.6653 26.7509L30.6834 26.7691C29.9234 26.6985 29.16 26.8635 28.4973 27.2417C27.8347 27.62 27.305 28.1929 26.9807 28.8825C26.6563 29.5722 26.5529 30.3447 26.6847 31.0952C26.8165 31.8455 27.177 32.537 27.717 33.0754C28.2571 33.6139 28.9503 33.973 29.7023 34.1037C30.4544 34.2346 31.2285 34.1307 31.9193 33.8064C32.61 33.4821 33.1836 32.9531 33.5621 32.2915C33.9405 31.6299 34.1052 30.8679 34.0338 30.1095L34.053 30.1276C33.9993 29.4935 34.0849 28.8554 34.304 28.2576C34.523 27.66 34.8701 27.1173 35.321 26.6673C35.7719 26.2174 36.3158 25.8709 36.9146 25.6525C37.5136 25.4339 38.153 25.3483 38.7885 25.4019L38.7693 25.3838C39.3901 25.4394 40.0151 25.3379 40.5862 25.0884C41.1572 24.8389 41.656 24.4496 42.0361 23.9566C42.4163 23.4636 42.6657 22.8827 42.7609 22.268C42.8562 21.6532 42.7945 21.0243 42.5814 20.4396C42.3684 19.855 42.0108 19.3335 41.542 18.9235C41.0732 18.5134 40.5082 18.2281 39.8995 18.094C39.2908 17.9599 38.6579 17.9812 38.0597 18.1561C37.4614 18.3311 36.9172 18.6539 36.4772 19.0946H36.4742Z" fill="#EAD834"/>
<path d="M29.032 24.3946L29.0129 24.3764C29.5529 24.4307 30.0983 24.3646 30.6097 24.1827C31.1209 24.0009 31.5854 23.7081 31.9694 23.3252C32.3532 22.9423 32.6472 22.479 32.8297 21.9689C33.0123 21.4588 33.079 20.9146 33.025 20.3756L33.0442 20.3937C32.9905 19.7596 33.0763 19.1215 33.2952 18.5238C33.5142 17.9262 33.8614 17.3835 34.3122 16.9334C34.7632 16.4835 35.307 16.1371 35.9059 15.9186C36.5048 15.7 37.1442 15.6145 37.7797 15.6681L37.7605 15.6499C38.5207 15.7212 39.2843 15.5567 39.9473 15.1789C40.6104 14.8011 41.1405 14.2284 41.4653 13.5389C41.7902 12.8494 41.894 12.0767 41.7626 11.3261C41.6313 10.5756 41.2711 9.88378 40.7312 9.34503C40.1914 8.80629 39.4981 8.44684 38.746 8.31574C37.9939 8.18463 37.2196 8.28823 36.5286 8.61243C35.8377 8.93661 35.2639 9.46561 34.8852 10.1273C34.5066 10.7889 34.3418 11.551 34.4132 12.3095L34.395 12.2904C34.4488 12.9245 34.3633 13.5628 34.1443 14.1605C33.9254 14.7582 33.5783 15.3011 33.1274 15.7511C32.6765 16.201 32.1325 16.5475 31.5336 16.7659C30.9345 16.9844 30.295 17.0698 29.6595 17.0161L29.6777 17.0352C29.1377 16.981 28.5922 17.0471 28.0809 17.2289C27.5696 17.4106 27.1051 17.7036 26.7212 18.0865C26.3372 18.4693 26.0433 18.9326 25.8607 19.4428C25.6782 19.9529 25.6116 20.497 25.6655 21.036L25.6474 21.0179C25.7008 21.652 25.615 22.2901 25.396 22.8877C25.1768 23.4852 24.8298 24.0279 24.379 24.4778C23.9281 24.9277 23.3843 25.2741 22.7854 25.4927C22.1866 25.7113 21.5472 25.797 20.9119 25.7436L20.93 25.7617C20.1699 25.6905 19.4062 25.855 18.7432 26.2328C18.0802 26.6106 17.5501 27.1833 17.2252 27.8728C16.9004 28.5623 16.7965 29.335 16.9279 30.0855C17.0593 30.8361 17.4195 31.5279 17.9594 32.0666C18.4992 32.6054 19.1925 32.9648 19.9446 33.0959C20.6967 33.227 21.471 33.1234 22.1619 32.7992C22.8528 32.475 23.4267 31.9461 23.8053 31.2845C24.1839 30.6227 24.3488 29.8607 24.2774 29.1021L24.2965 29.1202C24.2429 28.4861 24.3286 27.848 24.5476 27.2503C24.7665 26.6527 25.1137 26.11 25.5645 25.6599C26.0155 25.21 26.5594 24.8636 27.1582 24.6451C27.7572 24.4266 28.3966 24.341 29.032 24.3946Z" fill="#CE9238"/>
<path d="M22.2707 22.3742C22.6531 21.9904 22.9458 21.5271 23.128 21.0174C23.3103 20.5077 23.3775 19.9641 23.3249 19.4254L23.3441 19.4436C23.2904 18.8093 23.3761 18.1709 23.5953 17.5731C23.8144 16.9753 24.1617 16.4325 24.6128 15.9825C25.064 15.5325 25.608 15.1861 26.2072 14.9677C26.8063 14.7493 27.446 14.664 28.0816 14.7179L28.0625 14.6998C28.8223 14.7708 29.5857 14.6062 30.2484 14.2284C30.9111 13.8507 31.4409 13.2781 31.7656 12.5888C32.0903 11.8996 32.194 11.1271 32.0626 10.3769C31.9313 9.6266 31.5711 8.93505 31.0315 8.3965C30.4918 7.85794 29.7988 7.49862 29.047 7.36752C28.2952 7.23641 27.5211 7.33992 26.8305 7.66391C26.1397 7.98791 25.566 8.51662 25.1875 9.17796C24.8088 9.83929 24.6439 10.6011 24.7151 11.3594L24.697 11.3412C24.7506 11.9753 24.6649 12.6135 24.4459 13.2111C24.2268 13.8088 23.8798 14.3515 23.4289 14.8015C22.978 15.2515 22.4341 15.5978 21.8352 15.8163C21.2363 16.0349 20.5969 16.1205 19.9614 16.0669L19.9796 16.085C19.3587 16.0295 18.7338 16.1313 18.1629 16.3808C17.5919 16.6304 17.0933 17.0198 16.7132 17.5129C16.3332 18.0059 16.084 18.5868 15.9888 19.2015C15.8936 19.8164 15.9554 20.4452 16.1686 21.0297C16.3817 21.6143 16.7393 22.1357 17.2081 22.5457C17.6769 22.9557 18.2419 23.2409 18.8506 23.375C19.4593 23.509 20.0921 23.4876 20.6903 23.3127C21.2885 23.1377 21.8328 22.815 22.2727 22.3742H22.2707Z" fill="#EAD834"/>
<g opacity="0.7">
<path d="M48.1577 25.7144L53.614 10.5915H56.6831L62.1393 25.7144H59.2407L58.0472 22.2145H52.2286L51.0137 25.7144H48.1577ZM52.9746 20.0541H57.3012L55.1272 13.7673L52.9746 20.0541Z" fill="#4C6379"/>
<path d="M67.6112 25.9736C66.5314 25.9736 65.5794 25.736 64.7552 25.2607C63.9311 24.7854 63.2775 24.1229 62.7944 23.2731C62.3255 22.4234 62.0911 21.4512 62.0911 20.3566C62.0911 19.262 62.3255 18.2898 62.7944 17.44C63.2775 16.5903 63.9311 15.9277 64.7552 15.4524C65.5794 14.9772 66.5314 14.7395 67.6112 14.7395C68.9611 14.7395 70.0978 15.0996 71.0214 15.8197C71.945 16.5254 72.5346 17.5048 72.7904 18.7579H69.9131C69.771 18.2394 69.4868 17.8361 69.0605 17.548C68.6485 17.2456 68.1583 17.0944 67.5899 17.0944C66.8368 17.0944 66.1974 17.3824 65.6717 17.9585C65.146 18.5346 64.8831 19.334 64.8831 20.3566C64.8831 21.3792 65.146 22.1785 65.6717 22.7546C66.1974 23.3307 66.8368 23.6188 67.5899 23.6188C68.1583 23.6188 68.6485 23.4748 69.0605 23.1867C69.4868 22.8986 69.771 22.4882 69.9131 21.9553H72.7904C72.5346 23.1651 71.945 24.1373 71.0214 24.8718C70.0978 25.6064 68.9611 25.9736 67.6112 25.9736Z" fill="#4C6379"/>
<path d="M74.1461 25.7144V14.9988H76.5545L76.789 16.4462C77.13 15.9277 77.5776 15.5173 78.1317 15.2148C78.7001 14.8979 79.3537 14.7395 80.0926 14.7395C81.7266 14.7395 82.8846 15.3804 83.5667 16.6623C83.9503 16.0718 84.4618 15.6037 85.1012 15.258C85.7548 14.9123 86.4653 14.7395 87.2326 14.7395C88.6108 14.7395 89.6694 15.1572 90.4083 15.9925C91.1471 16.8279 91.5166 18.0521 91.5166 19.6652V25.7144H88.7884V19.9245C88.7884 19.0027 88.6108 18.297 88.2556 17.8073C87.9146 17.3176 87.3818 17.0727 86.6571 17.0727C85.9182 17.0727 85.3215 17.3464 84.8668 17.8937C84.4263 18.441 84.2061 19.2044 84.2061 20.1837V25.7144H81.4779V19.9245C81.4779 19.0027 81.3003 18.297 80.9451 17.8073C80.5899 17.3176 80.0428 17.0727 79.304 17.0727C78.5793 17.0727 77.9896 17.3464 77.535 17.8937C77.0945 18.441 76.8742 19.2044 76.8742 20.1837V25.7144H74.1461Z" fill="#4C6379"/>
<path d="M98.1775 25.9736C97.1118 25.9736 96.1669 25.7432 95.3428 25.2823C94.5187 24.8214 93.8722 24.1733 93.4033 23.3379C92.9344 22.5026 92.7 21.5376 92.7 20.443C92.7 19.334 92.9273 18.3474 93.382 17.4832C93.8509 16.6191 94.4903 15.9493 95.3002 15.474C96.1243 14.9844 97.0905 14.7395 98.1988 14.7395C99.2361 14.7395 100.153 14.97 100.948 15.4308C101.744 15.8917 102.362 16.5254 102.803 17.332C103.257 18.1241 103.485 19.0099 103.485 19.9893C103.485 20.1477 103.477 20.3134 103.463 20.4862C103.463 20.659 103.456 20.8391 103.442 21.0263H95.4068C95.4636 21.8617 95.7478 22.517 96.2593 22.9923C96.785 23.4676 97.4173 23.7052 98.1562 23.7052C98.7103 23.7052 99.1721 23.5828 99.5416 23.3379C99.9252 23.0787 100.209 22.7474 100.394 22.3441H103.165C102.966 23.0211 102.632 23.6404 102.163 24.2021C101.708 24.7494 101.14 25.1815 100.458 25.4983C99.7902 25.8152 99.03 25.9736 98.1775 25.9736ZM98.1988 16.9863C97.531 16.9863 96.9413 17.1808 96.4298 17.5696C95.9183 17.9441 95.5915 18.5202 95.4494 19.298H100.714C100.671 18.5922 100.415 18.0305 99.9465 17.6129C99.4776 17.1952 98.8951 16.9863 98.1988 16.9863Z" fill="#4C6379"/>
<path d="M115.547 25.9736C114.04 25.9736 112.747 25.6496 111.668 25.0014C110.588 24.3389 109.756 23.4243 109.174 22.2577C108.591 21.0767 108.3 19.7156 108.3 18.1746C108.3 16.6335 108.591 15.2724 109.174 14.0914C109.756 12.9104 110.588 11.9886 111.668 11.3261C112.747 10.6635 114.04 10.3323 115.547 10.3323C117.337 10.3323 118.8 10.786 119.937 11.6933C121.088 12.5863 121.806 13.8465 122.09 15.474H119.085C118.9 14.6531 118.502 14.0122 117.891 13.5513C117.294 13.076 116.499 12.8383 115.504 12.8383C114.126 12.8383 113.046 13.3136 112.264 14.2642C111.483 15.2148 111.092 16.5182 111.092 18.1746C111.092 19.8309 111.483 21.1343 112.264 22.0849C113.046 23.0211 114.126 23.4892 115.504 23.4892C116.499 23.4892 117.294 23.2731 117.891 22.841C118.502 22.3946 118.9 21.7824 119.085 21.0047H122.09C121.806 22.5602 121.088 23.7772 119.937 24.6558C118.8 25.5343 117.337 25.9736 115.547 25.9736Z" fill="#4C6379"/>
<path d="M128.448 25.9736C127.425 25.9736 126.501 25.736 125.677 25.2607C124.867 24.7854 124.221 24.1301 123.737 23.2947C123.269 22.445 123.034 21.4656 123.034 20.3566C123.034 19.2476 123.276 18.2754 123.759 17.44C124.242 16.5903 124.888 15.9277 125.698 15.4524C126.522 14.9772 127.446 14.7395 128.469 14.7395C129.478 14.7395 130.387 14.9772 131.197 15.4524C132.021 15.9277 132.668 16.5903 133.137 17.44C133.62 18.2754 133.861 19.2476 133.861 20.3566C133.861 21.4656 133.62 22.445 133.137 23.2947C132.668 24.1301 132.021 24.7854 131.197 25.2607C130.373 25.736 129.457 25.9736 128.448 25.9736ZM128.448 23.5756C129.158 23.5756 129.776 23.3091 130.302 22.7762C130.828 22.2289 131.091 21.4224 131.091 20.3566C131.091 19.2908 130.828 18.4914 130.302 17.9585C129.776 17.4112 129.165 17.1376 128.469 17.1376C127.744 17.1376 127.119 17.4112 126.593 17.9585C126.082 18.4914 125.826 19.2908 125.826 20.3566C125.826 21.4224 126.082 22.2289 126.593 22.7762C127.119 23.3091 127.737 23.5756 128.448 23.5756Z" fill="#4C6379"/>
<path d="M135.235 25.7144V14.9988H137.665L137.92 17.0079C138.304 16.3166 138.823 15.7693 139.476 15.366C140.144 14.9483 140.926 14.7395 141.821 14.7395V17.6561H141.053C140.457 17.6561 139.924 17.7497 139.455 17.9369C138.986 18.1241 138.617 18.4482 138.347 18.9091C138.091 19.37 137.963 20.0109 137.963 20.8319V25.7144H135.235Z" fill="#4C6379"/>
<path d="M142.62 30.4673V14.9988H145.049L145.348 16.5326C145.689 16.0574 146.136 15.6397 146.691 15.2796C147.259 14.9195 147.991 14.7395 148.886 14.7395C149.88 14.7395 150.768 14.9844 151.55 15.474C152.331 15.9637 152.95 16.6335 153.404 17.4832C153.859 18.333 154.086 19.298 154.086 20.3782C154.086 21.4584 153.859 22.4234 153.404 23.2731C152.95 24.1085 152.331 24.771 151.55 25.2607C150.768 25.736 149.88 25.9736 148.886 25.9736C148.09 25.9736 147.394 25.8224 146.797 25.5199C146.2 25.2175 145.717 24.7926 145.348 24.2453V30.4673H142.62ZM148.31 23.554C149.177 23.554 149.895 23.2587 150.463 22.6682C151.031 22.0777 151.316 21.3144 151.316 20.3782C151.316 19.442 151.031 18.6715 150.463 18.0665C149.895 17.4616 149.177 17.1592 148.31 17.1592C147.429 17.1592 146.705 17.4616 146.136 18.0665C145.582 18.657 145.305 19.4204 145.305 20.3566C145.305 21.2927 145.582 22.0633 146.136 22.6682C146.705 23.2587 147.429 23.554 148.31 23.554Z" fill="#4C6379"/>
</g>
</svg>
