<svg width="156" height="40" viewBox="0 0 156 40" fill="none" xmlns="http://www.w3.org/2000/svg">
<g opacity="0.7">
<path d="M42.6298 26.6988V10.6857H52.9503V13.4308H45.6571V17.2511H52.3082V19.9962H45.6571V23.9537H53.0879V26.6988H42.6298Z" fill="#4C6379"/>
<path d="M54.2739 31.274V15.3524H57.1178V16.725H57.5306C57.7905 16.2827 58.1957 15.8938 58.7461 15.5583C59.2966 15.2075 60.084 15.0321 61.1084 15.0321C62.0258 15.0321 62.8744 15.2609 63.6541 15.7184C64.4339 16.1607 65.0608 16.8165 65.5348 17.6857C66.0088 18.555 66.2457 19.6073 66.2457 20.8426V21.2086C66.2457 22.4439 66.0088 23.4962 65.5348 24.3655C65.0608 25.2348 64.4339 25.8982 63.6541 26.3557C62.8744 26.798 62.0258 27.0191 61.1084 27.0191C60.4204 27.0191 59.8394 26.9352 59.3654 26.7675C58.9067 26.615 58.5321 26.4167 58.2416 26.1727C57.9664 25.9134 57.7447 25.6542 57.5765 25.3949H57.1637V31.274H54.2739ZM60.2369 24.5027C61.139 24.5027 61.8805 24.2206 62.4615 23.6563C63.0578 23.0768 63.356 22.238 63.356 21.14V20.9112C63.356 19.8132 63.0578 18.982 62.4615 18.4178C61.8652 17.8383 61.1237 17.5485 60.2369 17.5485C59.3501 17.5485 58.6085 17.8383 58.0122 18.4178C57.4159 18.982 57.1178 19.8132 57.1178 20.9112V21.14C57.1178 22.238 57.4159 23.0768 58.0122 23.6563C58.6085 24.2206 59.3501 24.5027 60.2369 24.5027Z" fill="#4C6379"/>
<path d="M67.7524 26.6988V15.3524H70.6422V26.6988H67.7524ZM69.1973 14.0256C68.6775 14.0256 68.2341 13.8579 67.8671 13.5223C67.5154 13.1868 67.3396 12.7446 67.3396 12.1955C67.3396 11.6465 67.5154 11.2043 67.8671 10.8687C68.2341 10.5332 68.6775 10.3655 69.1973 10.3655C69.7325 10.3655 70.1759 10.5332 70.5275 10.8687C70.8792 11.2043 71.055 11.6465 71.055 12.1955C71.055 12.7446 70.8792 13.1868 70.5275 13.5223C70.1759 13.8579 69.7325 14.0256 69.1973 14.0256Z" fill="#4C6379"/>
<path d="M78.0415 27.0191C76.9406 27.0191 75.9391 26.7903 75.037 26.3328C74.1502 25.8753 73.4469 25.2119 72.9271 24.3426C72.4072 23.4733 72.1473 22.421 72.1473 21.1858V20.8655C72.1473 19.6302 72.4072 18.5779 72.9271 17.7086C73.4469 16.8393 74.1502 16.1759 75.037 15.7184C75.9391 15.2609 76.9406 15.0321 78.0415 15.0321C79.127 15.0321 80.0597 15.2228 80.8395 15.604C81.6193 15.9853 82.2461 16.5115 82.7201 17.1825C83.2094 17.8383 83.5305 18.5855 83.6834 19.4243L80.8854 20.0191C80.8242 19.5616 80.6866 19.1498 80.4725 18.7838C80.2585 18.4178 79.9527 18.128 79.5551 17.9145C79.1729 17.701 78.6913 17.5942 78.1103 17.5942C77.5293 17.5942 77.0018 17.7239 76.5278 17.9831C76.0691 18.2271 75.7021 18.6008 75.4269 19.104C75.167 19.5921 75.037 20.1945 75.037 20.9112V21.14C75.037 21.8568 75.167 22.4668 75.4269 22.9701C75.7021 23.4581 76.0691 23.8317 76.5278 24.091C77.0018 24.335 77.5293 24.457 78.1103 24.457C78.9818 24.457 79.6392 24.2359 80.0826 23.7936C80.5413 23.3361 80.8318 22.7413 80.9542 22.0093L83.7522 22.6727C83.5534 23.481 83.2094 24.2206 82.7201 24.8916C82.2461 25.5474 81.6193 26.0659 80.8395 26.4472C80.0597 26.8285 79.127 27.0191 78.0415 27.0191Z" fill="#4C6379"/>
<path d="M89.3238 26.8818C88.437 26.8818 87.6573 26.6836 86.9845 26.2871C86.3271 25.8753 85.8149 25.311 85.4479 24.5942C85.0809 23.8775 84.8975 23.0539 84.8975 22.1237V15.3524H87.7872V21.8949C87.7872 22.7489 87.9936 23.3895 88.4065 23.8165C88.8346 24.2435 89.4385 24.457 90.2183 24.457C91.1051 24.457 91.7931 24.1672 92.2824 23.5877C92.7717 22.9929 93.0163 22.1694 93.0163 21.1171V15.3524H95.9061V26.6988H93.0622V25.2119H92.6494C92.4659 25.5932 92.1219 25.9668 91.6173 26.3328C91.1127 26.6988 90.3483 26.8818 89.3238 26.8818Z" fill="#4C6379"/>
<path d="M97.975 26.6988V15.3524H100.819V16.6335H101.232C101.4 16.1759 101.675 15.8404 102.057 15.6269C102.455 15.4134 102.914 15.3067 103.433 15.3067H104.81V17.8688H103.388C102.654 17.8688 102.05 18.067 101.576 18.4635C101.102 18.8448 100.865 19.4396 100.865 20.2478V26.6988H97.975Z" fill="#4C6379"/>
<path d="M105.921 26.6988V15.3524H108.811V26.6988H105.921ZM107.366 14.0256C106.847 14.0256 106.403 13.8579 106.036 13.5223C105.684 13.1868 105.509 12.7446 105.509 12.1955C105.509 11.6465 105.684 11.2043 106.036 10.8687C106.403 10.5332 106.847 10.3655 107.366 10.3655C107.902 10.3655 108.345 10.5332 108.697 10.8687C109.048 11.2043 109.224 11.6465 109.224 12.1955C109.224 12.7446 109.048 13.1868 108.697 13.5223C108.345 13.8579 107.902 14.0256 107.366 14.0256Z" fill="#4C6379"/>
<path d="M116.279 27.0191C115.148 27.0191 114.131 26.7903 113.229 26.3328C112.327 25.8753 111.616 25.2119 111.096 24.3426C110.576 23.4733 110.316 22.4287 110.316 21.2086V20.8426C110.316 19.6226 110.576 18.5779 111.096 17.7086C111.616 16.8393 112.327 16.1759 113.229 15.7184C114.131 15.2609 115.148 15.0321 116.279 15.0321C117.411 15.0321 118.428 15.2609 119.33 15.7184C120.232 16.1759 120.943 16.8393 121.463 17.7086C121.982 18.5779 122.242 19.6226 122.242 20.8426V21.2086C122.242 22.4287 121.982 23.4733 121.463 24.3426C120.943 25.2119 120.232 25.8753 119.33 26.3328C118.428 26.7903 117.411 27.0191 116.279 27.0191ZM116.279 24.457C117.166 24.457 117.9 24.1749 118.481 23.6106C119.062 23.0311 119.353 22.2075 119.353 21.14V20.9112C119.353 19.8437 119.062 19.0278 118.481 18.4635C117.915 17.884 117.181 17.5942 116.279 17.5942C115.393 17.5942 114.659 17.884 114.078 18.4635C113.497 19.0278 113.206 19.8437 113.206 20.9112V21.14C113.206 22.2075 113.497 23.0311 114.078 23.6106C114.659 24.1749 115.393 24.457 116.279 24.457Z" fill="#4C6379"/>
<path d="M128.098 26.8818C127.211 26.8818 126.431 26.6836 125.758 26.2871C125.101 25.8753 124.589 25.311 124.222 24.5942C123.855 23.8775 123.671 23.0539 123.671 22.1237V15.3524H126.561V21.8949C126.561 22.7489 126.767 23.3895 127.18 23.8165C127.608 24.2435 128.212 24.457 128.992 24.457C129.879 24.457 130.567 24.1672 131.056 23.5877C131.545 22.9929 131.79 22.1694 131.79 21.1171V15.3524H134.68V26.6988H131.836V25.2119H131.423C131.24 25.5932 130.896 25.9668 130.391 26.3328C129.887 26.6988 129.122 26.8818 128.098 26.8818Z" fill="#4C6379"/>
<path d="M141.473 27.0191C139.99 27.0191 138.775 26.6988 137.827 26.0583C136.879 25.4178 136.305 24.5027 136.107 23.3132L138.767 22.6269C138.874 23.1607 139.05 23.5801 139.295 23.8851C139.554 24.1901 139.868 24.4112 140.235 24.5485C140.617 24.6705 141.03 24.7315 141.473 24.7315C142.146 24.7315 142.643 24.6171 142.964 24.3884C143.285 24.1444 143.446 23.847 143.446 23.4962C143.446 23.1454 143.293 22.8786 142.987 22.6956C142.681 22.4973 142.192 22.3372 141.519 22.2152L140.877 22.1008C140.082 21.9483 139.356 21.7424 138.698 21.4831C138.041 21.2086 137.513 20.835 137.116 20.3622C136.718 19.8895 136.519 19.2794 136.519 18.5322C136.519 17.4036 136.932 16.542 137.758 15.9472C138.584 15.3372 139.669 15.0321 141.015 15.0321C142.284 15.0321 143.339 15.3143 144.18 15.8786C145.021 16.4428 145.571 17.1825 145.831 18.0975L143.148 18.921C143.025 18.3415 142.773 17.9298 142.391 17.6857C142.024 17.4417 141.565 17.3197 141.015 17.3197C140.464 17.3197 140.044 17.4189 139.753 17.6171C139.463 17.8001 139.317 18.0594 139.317 18.3949C139.317 18.7609 139.47 19.0354 139.776 19.2184C140.082 19.3862 140.495 19.5158 141.015 19.6073L141.657 19.7217C142.513 19.8742 143.285 20.0801 143.973 20.3393C144.677 20.5834 145.227 20.9417 145.624 21.4145C146.037 21.872 146.244 22.4973 146.244 23.2903C146.244 24.4799 145.808 25.4025 144.936 26.0583C144.08 26.6988 142.926 27.0191 141.473 27.0191Z" fill="#4C6379"/>
</g>
<path d="M9.72327 30.7752C13.9165 30.7752 17.3158 27.3845 17.3158 23.2021C17.3158 19.0195 13.9165 15.6289 9.72327 15.6289V20.9301C10.9812 20.9301 12.001 21.9473 12.001 23.2021C12.001 24.4568 10.9812 25.474 9.72327 25.474V30.7752Z" fill="#726BEA"/>
<path d="M35.0316 18.1514C33.7341 17.7415 32.3525 17.5203 30.9189 17.5203C23.406 17.5203 17.3156 23.5952 17.3156 31.0888C17.3156 31.8409 17.377 32.5788 17.4949 33.2976H25.9471C25.6454 32.6229 25.4777 31.8754 25.4777 31.0888C25.4777 28.0913 27.9138 25.6614 30.9189 25.6614C32.5614 25.6614 34.0339 26.3872 35.0316 27.5349V18.1514Z" fill="#A5B4FC"/>
<path d="M11.0579 8.05542C11.6874 13.7352 16.5151 18.153 22.3773 18.153C28.2394 18.153 33.0671 13.7352 33.6966 8.05542H25.5519C25.0491 9.3127 23.8171 10.2011 22.3773 10.2011C20.9373 10.2011 19.7055 9.3127 19.2026 8.05542H11.0579Z" fill="#4F46E5"/>
</svg>
