<svg width="140" height="40" viewBox="0 0 140 40" fill="none" xmlns="http://www.w3.org/2000/svg">
<g opacity="0.5">
<path d="M41.6543 27.4747H51.6052V24.4774H45.1911V13.1877H41.6543V27.4747Z" fill="black"/>
<path d="M57.5009 25.4763C56.0822 25.4763 55.3429 24.2375 55.3429 22.3792C55.3429 20.5209 56.0822 19.262 57.5009 19.262C58.9196 19.262 59.6789 20.5209 59.6789 22.3792C59.6789 24.2375 58.9196 25.4763 57.5009 25.4763ZM57.5209 27.7942C60.8179 27.7942 62.9759 25.4564 62.9759 22.3792C62.9759 19.302 60.8179 16.9641 57.5209 16.9641C54.2439 16.9641 52.0459 19.302 52.0459 22.3792C52.0459 25.4564 54.2439 27.7942 57.5209 27.7942Z" fill="black"/>
<path d="M68.6825 31.0117C70.2011 31.0117 71.5399 30.6721 72.4391 29.8728C73.2584 29.1335 73.7979 28.0145 73.7979 26.4759V17.2443H70.6807V18.3433H70.6407C70.0413 17.4841 69.1221 16.9446 67.7634 16.9446C65.2257 16.9446 63.4673 19.0626 63.4673 22.0599C63.4673 25.1971 65.6053 26.9155 67.9032 26.9155C69.1421 26.9155 69.9214 26.4159 70.5209 25.7366H70.6008V26.7556C70.6008 27.9945 70.0213 28.7138 68.6426 28.7138C67.5636 28.7138 67.024 28.2543 66.8442 27.7148H63.6871C64.0068 29.8528 65.8651 31.0117 68.6825 31.0117ZM68.6625 24.4977C67.4437 24.4977 66.6444 23.4986 66.6444 21.96C66.6444 20.4014 67.4437 19.4023 68.6625 19.4023C70.0213 19.4023 70.7407 20.5613 70.7407 21.94C70.7407 23.3787 70.0813 24.4977 68.6625 24.4977Z" fill="black"/>
<path d="M80.2072 25.4763C78.7885 25.4763 78.0492 24.2375 78.0492 22.3792C78.0492 20.5209 78.7885 19.262 80.2072 19.262C81.6259 19.262 82.3852 20.5209 82.3852 22.3792C82.3852 24.2375 81.6259 25.4763 80.2072 25.4763ZM80.2272 27.7942C83.5242 27.7942 85.6825 25.4564 85.6825 22.3792C85.6825 19.302 83.5242 16.9641 80.2272 16.9641C76.9502 16.9641 74.7522 19.302 74.7522 22.3792C74.7522 25.4564 76.9502 27.7942 80.2272 27.7942Z" fill="black"/>
<path d="M86.6333 27.4747H89.8903V17.244H86.6333V27.4747ZM86.6333 15.8253H89.8903V13.1877H86.6333V15.8253Z" fill="black"/>
<path d="M91.3035 30.8519H94.5605V26.4159H94.6005C95.2399 27.2752 96.179 27.7947 97.4978 27.7947C100.175 27.7947 101.954 25.6766 101.954 22.3596C101.954 19.2824 100.295 16.9446 97.5777 16.9446C96.179 16.9446 95.1799 17.564 94.4806 18.4832H94.4206V17.2443H91.3035V30.8519ZM96.6586 25.277C95.2599 25.277 94.4606 24.138 94.4606 22.4795C94.4606 20.821 95.1799 19.5622 96.5986 19.5622C97.9974 19.5622 98.6568 20.7211 98.6568 22.4795C98.6568 24.2179 97.8975 25.277 96.6586 25.277Z" fill="black"/>
<path d="M107.257 27.7947C109.935 27.7947 111.913 26.6357 111.913 24.3978C111.913 21.7802 109.795 21.3206 107.996 21.0209C106.697 20.7811 105.539 20.6812 105.539 19.9618C105.539 19.3224 106.158 19.0227 106.957 19.0227C107.856 19.0227 108.476 19.3024 108.596 20.2216H111.593C111.433 18.2034 109.875 16.9446 106.977 16.9446C104.559 16.9446 102.561 18.0636 102.561 20.2216C102.561 22.6194 104.46 23.099 106.238 23.3987C107.597 23.6385 108.836 23.7384 108.836 24.6575C108.836 25.3169 108.216 25.6766 107.237 25.6766C106.158 25.6766 105.479 25.1771 105.359 24.158H102.281C102.381 26.4159 104.26 27.7947 107.257 27.7947Z" fill="black"/>
<path d="M116.336 27.7748C117.755 27.7748 118.654 27.2153 119.393 26.2162H119.453V27.4751H122.571V17.2444H119.314V22.9592C119.314 24.1781 118.634 25.0173 117.515 25.0173C116.476 25.0173 115.977 24.3979 115.977 23.2789V17.2444H112.74V23.9583C112.74 26.2362 113.978 27.7748 116.336 27.7748Z" fill="black"/>
<path d="M123.988 27.475H127.245V21.7402C127.245 20.5213 127.844 19.6621 128.863 19.6621C129.842 19.6621 130.302 20.3015 130.302 21.4005V27.475H133.559V21.7402C133.559 20.5213 134.139 19.6621 135.178 19.6621C136.157 19.6621 136.616 20.3015 136.616 21.4005V27.475H139.873V20.821C139.873 18.5231 138.714 16.9446 136.396 16.9446C135.078 16.9446 133.979 17.5041 133.179 18.7429H133.139C132.62 17.6439 131.601 16.9446 130.262 16.9446C128.783 16.9446 127.804 17.6439 127.165 18.703H127.105V17.2443H123.988V27.475Z" fill="black"/>
</g>
<path fill-rule="evenodd" clip-rule="evenodd" d="M8.37078 6.74183C7.17965 7.5747 6.10255 8.55943 5.16753 9.66793C8.98846 9.3132 13.8428 9.89244 19.4787 12.7104C25.497 15.7195 30.3433 15.8212 33.716 15.1706C33.41 14.2441 33.0247 13.3536 32.5683 12.507C28.7074 12.9142 23.7578 12.3752 17.9894 9.49108C14.3264 7.65958 11.0975 6.90513 8.37078 6.74183ZM30.313 9.29681C27.264 5.89021 22.8331 3.74634 17.9014 3.74634C16.4532 3.74634 15.048 3.93126 13.7084 4.27875C15.5227 4.7738 17.4501 5.49806 19.4787 6.51237C23.702 8.62399 27.3482 9.3039 30.313 9.29681ZM34.4371 18.423C30.3625 19.2276 24.7359 19.0623 17.9894 15.6891C11.6821 12.5355 6.66209 12.5752 3.2764 13.3276C3.10164 13.3664 2.931 13.4072 2.76448 13.4496C2.32121 14.4137 1.96737 15.4274 1.7135 16.4801C1.98465 16.4077 2.26485 16.3388 2.55394 16.2746C6.66137 15.3618 12.4648 15.4014 19.4787 18.9084C25.786 22.062 30.806 22.0223 34.1918 21.2699C34.3077 21.2442 34.422 21.2175 34.5344 21.1901C34.5468 20.9276 34.5529 20.6634 34.5529 20.3978C34.5529 19.7297 34.5136 19.0707 34.4371 18.423ZM33.9908 24.7041C29.9557 25.4096 24.4929 25.1388 17.9894 21.8871C11.6821 18.7335 6.66209 18.7732 3.2764 19.5256C2.52488 19.6925 1.84882 19.8959 1.25244 20.1106C1.25081 20.2061 1.25 20.3019 1.25 20.3978C1.25 29.5942 8.70511 37.0493 17.9014 37.0493C25.6087 37.0493 32.0929 31.8131 33.9908 24.7041Z" fill="#B7E493"/>
</svg>
