<svg width="140" height="40" viewBox="0 0 140 40" fill="none" xmlns="http://www.w3.org/2000/svg">
<g opacity="0.7">
<path d="M48.8422 25.0488V10.6387H46.4883V25.0488H48.8422Z" fill="#4C6379"/>
<path d="M50.2828 20.2453C50.2828 23.1893 52.2509 25.2811 55.2415 25.2811C58.2322 25.2811 60.2002 23.1893 60.2002 20.2453C60.2002 17.3013 58.2322 15.2095 55.2415 15.2095C52.2509 15.2095 50.2828 17.3013 50.2828 20.2453ZM52.6561 20.2453C52.6561 18.5215 53.6787 17.3206 55.2415 17.3206C56.8044 17.3206 57.827 18.5215 57.827 20.2453C57.827 21.9497 56.8044 23.1699 55.2415 23.1699C53.6787 23.1699 52.6561 21.9497 52.6561 20.2453Z" fill="#4C6379"/>
<path d="M60.9919 20.0513C60.9919 22.8403 62.7863 24.8546 65.4683 24.8546C66.8575 24.8546 68.0537 24.2929 68.6518 23.3633V24.9902C68.6518 26.559 67.6678 27.6049 66.0278 27.6049C64.5614 27.6049 63.5581 26.8883 63.423 25.6294H61.0498C61.3585 28.1279 63.2687 29.7548 65.8927 29.7548C68.9798 29.7548 70.9479 27.7211 70.9479 24.5641V15.4803H68.8641L68.729 16.778C68.1502 15.7708 66.9539 15.1704 65.5454 15.1704C62.8249 15.1704 60.9919 17.2428 60.9919 20.0513ZM63.3845 19.9931C63.3845 18.4049 64.3878 17.2428 65.8734 17.2428C67.4942 17.2428 68.5747 18.4243 68.5747 19.9931C68.5747 21.5814 67.4942 22.8016 65.8734 22.8016C64.4071 22.8016 63.3845 21.6007 63.3845 19.9931Z" fill="#4C6379"/>
<path d="M72.1129 20.2453C72.1129 23.1893 74.0809 25.2811 77.0716 25.2811C80.0622 25.2811 82.0303 23.1893 82.0303 20.2453C82.0303 17.3013 80.0622 15.2095 77.0716 15.2095C74.0809 15.2095 72.1129 17.3013 72.1129 20.2453ZM74.4861 20.2453C74.4861 18.5215 75.5087 17.3206 77.0716 17.3206C78.6344 17.3206 79.657 18.5215 79.657 20.2453C79.657 21.9497 78.6344 23.1699 77.0716 23.1699C75.5087 23.1699 74.4861 21.9497 74.4861 20.2453Z" fill="#4C6379"/>
<path d="M84.5777 13.5252C85.3495 13.5252 85.9862 12.9054 85.9862 12.1113C85.9862 11.3366 85.3495 10.7168 84.5777 10.7168C83.7866 10.7168 83.1885 11.3366 83.1885 12.1113C83.1885 12.9054 83.7866 13.5252 84.5777 13.5252ZM83.4007 25.0494H85.7546V15.4814H83.4007V25.0494Z" fill="#4C6379"/>
<path d="M87.817 29.4843H90.1132V23.7319C90.7114 24.7197 92.0041 25.3007 93.4319 25.3007C96.2489 25.3007 97.9275 23.1315 97.8889 20.1487C97.831 17.1466 96.1138 15.1904 93.4126 15.1904C91.9655 15.1904 90.6535 15.8296 90.0746 16.9336L89.9396 15.481H87.817V29.4843ZM90.2097 20.265C90.2097 18.5412 91.2516 17.3403 92.8916 17.3403C94.5317 17.3403 95.5157 18.5605 95.5157 20.265C95.5157 21.9694 94.5317 23.1702 92.8916 23.1702C91.2516 23.1702 90.2097 21.9887 90.2097 20.265Z" fill="#4C6379"/>
<path d="M98.4861 22.1824C98.5633 24.0805 100.03 25.3007 102.306 25.3007C104.545 25.3007 106.069 24.0999 106.069 22.2405C106.069 20.8654 105.22 19.9357 103.657 19.5483L101.978 19.1416C101.264 18.9479 100.782 18.6961 100.782 18.0763C100.782 17.4178 101.303 16.953 102.152 16.953C103.04 16.953 103.618 17.4565 103.618 18.2894H105.76C105.683 16.3913 104.274 15.1904 102.21 15.1904C100.165 15.1904 98.6404 16.3913 98.6404 18.2119C98.6404 19.4515 99.3543 20.478 101.187 20.9622L102.847 21.3883C103.464 21.5626 103.85 21.8532 103.85 22.3955C103.85 23.1509 103.136 23.4995 102.268 23.4995C101.226 23.4995 100.628 23.0153 100.628 22.1824H98.4861Z" fill="#4C6379"/>
<path d="M110.952 25.3003C112.245 25.3003 113.48 24.6998 114.039 23.8089L114.193 25.0485H116.393V15.4805H114.039V20.4969C114.039 22.2207 113.383 23.1891 111.84 23.1891C110.643 23.1891 109.814 22.608 109.814 20.6325V15.4805H107.46V21.4653C107.46 23.7508 108.695 25.3003 110.952 25.3003Z" fill="#4C6379"/>
<path d="M120.824 25.049V19.5483C120.824 17.9989 121.731 17.2629 122.85 17.2629C123.969 17.2629 124.702 17.9795 124.702 19.3353V25.049H126.998V19.5677C126.998 17.9989 127.886 17.2629 129.005 17.2629C130.143 17.2629 130.876 17.9795 130.876 19.3353V25.049H133.153V18.793C133.153 16.585 131.938 15.1904 129.622 15.1904C128.175 15.1904 127.037 15.8877 126.574 17.0111C126.053 15.8877 125.011 15.1904 123.429 15.1904C122.31 15.1904 121.306 15.7134 120.747 16.5656L120.631 15.481H118.47V25.049H120.824Z" fill="#4C6379"/>
<path d="M115.181 33.5996C115.532 33.5996 115.836 33.3031 115.836 32.9511C115.836 32.5899 115.532 32.2935 115.181 32.2935C114.821 32.2935 114.516 32.5899 114.516 32.9511C114.516 33.3031 114.821 33.5996 115.181 33.5996Z" fill="#4C6379"/>
<path d="M116.513 31.2102C116.513 32.6275 117.38 33.5816 118.645 33.5816C119.733 33.5816 120.564 32.9239 120.739 31.942H119.909C119.752 32.4885 119.272 32.8127 118.7 32.8127C117.888 32.8127 117.371 32.1828 117.371 31.2009C117.371 30.2005 117.916 29.5891 118.718 29.5891C119.272 29.5891 119.752 29.8856 119.9 30.4691H120.73C120.582 29.478 119.807 28.811 118.728 28.811C117.417 28.811 116.513 29.7837 116.513 31.2102Z" fill="#4C6379"/>
<path d="M121.066 31.2C121.066 32.5617 121.989 33.5806 123.373 33.5806C124.758 33.5806 125.68 32.5617 125.68 31.2C125.68 29.8383 124.758 28.8193 123.373 28.8193C121.989 28.8193 121.066 29.8383 121.066 31.2ZM121.943 31.2C121.943 30.2737 122.506 29.5974 123.373 29.5974C124.241 29.5974 124.804 30.2737 124.804 31.2C124.804 32.1263 124.241 32.8025 123.373 32.8025C122.506 32.8025 121.943 32.1263 121.943 31.2Z" fill="#4C6379"/>
<path d="M127.288 33.4787V30.7553C127.288 30.0421 127.731 29.5789 128.377 29.5789C128.996 29.5789 129.383 29.9772 129.383 30.6905V33.4787H130.232V30.7646C130.232 30.0421 130.666 29.5789 131.321 29.5789C131.93 29.5789 132.318 29.9772 132.318 30.6905V33.4787H133.157V30.5052C133.157 29.4585 132.548 28.8193 131.515 28.8193C130.813 28.8193 130.269 29.1621 130.048 29.7179C129.817 29.1621 129.309 28.8193 128.571 28.8193C128.008 28.8193 127.51 29.0787 127.261 29.5233L127.196 28.949H126.421V33.4787H127.288Z" fill="#4C6379"/>
</g>
<path fill-rule="evenodd" clip-rule="evenodd" d="M7.36841 20.363L7.37003 20.1942L7.37337 20.0254L7.37843 19.8565L7.38522 19.6877L7.39374 19.5188L7.40399 19.35L7.41596 19.1812L7.42966 19.0125L7.4451 18.8438L7.46226 18.6751L7.48115 18.5067L7.50177 18.3383L7.52411 18.17L7.54819 18.002L7.57399 17.834L7.60151 17.6664L7.63076 17.4988L7.66173 17.3316L7.69442 17.1645L7.72883 16.9977L7.76496 16.8311L7.80279 16.6649L7.84236 16.499L7.88361 16.3333L7.92659 16.1681L7.97126 16.0031L8.01764 15.8386L8.06572 15.6745L8.11549 15.5108L8.16695 15.3475L8.2201 15.1846L8.27494 15.0222L8.33145 14.8602L8.38964 14.6988L8.4495 14.5379L8.51103 14.3775L8.57422 14.2176L8.63907 14.0583L8.70556 13.8996L8.77371 13.7415L8.84349 13.5839L8.91492 13.4271L8.98797 13.2708L9.06265 13.1152L9.13894 12.9603L9.21685 12.8061L9.29636 12.6526L9.37747 12.4997L9.46017 12.3477L9.54445 12.1964L9.63032 12.0458L9.71775 11.8961L9.80675 11.7471L9.8973 11.599L9.9894 11.4517L10.083 11.3053L10.1782 11.1598L10.2749 11.015L10.3731 10.8713L10.4728 10.7284L10.574 10.5864L10.6767 10.4454L10.7809 10.3053L10.8866 10.1663L10.9937 10.0281L11.1023 9.891L11.2123 9.75492L11.3237 9.61986L11.4366 9.48585L11.5508 9.35289L11.6665 9.22101L11.7836 9.09022L11.902 8.96053L12.0218 8.83196L12.143 8.70451L12.2655 8.57821L12.3894 8.45307L12.5145 8.32909L12.641 8.20631L12.7688 8.08471L12.8979 7.96434L13.0283 7.84519L13.1599 7.72727L13.2928 7.61061L13.4269 7.4952L13.5623 7.38108L13.6989 7.26824L13.8366 7.15671L13.9756 7.04648L14.1158 6.93758L14.257 6.83003L14.3996 6.72381L14.5432 6.61897L14.6879 6.5155L14.8337 6.41341L14.9807 6.31272L15.1286 6.21343L15.2777 6.11557L15.4279 6.01913L15.5791 5.92414L15.7313 5.8306L15.8846 5.73852L16.0387 5.64791L16.1939 5.55879L16.3501 5.47116L16.5073 5.38504L16.6653 5.30043L16.8243 5.21735L16.9842 5.13579L17.145 5.05578L17.3066 4.97732L17.4692 4.90042L17.6326 4.82509L17.7968 4.75135L17.9618 4.67919L18.1277 4.60863L18.2943 4.53968L18.4616 4.47233L18.6297 4.40661L18.7986 4.34252L18.9682 4.28007L19.1384 4.21927L19.3094 4.16011L19.481 4.10261L19.6533 4.04679L19.8262 3.99263L19.9997 3.94016L20.1739 3.88938L20.3485 3.84029L20.5239 3.7929L20.6997 3.74721L20.876 3.70325L21.0529 3.66101L21.2303 3.62048L21.4081 3.58169L21.5864 3.54463L21.7652 3.50931L21.9444 3.47575L22.124 3.44392L22.304 3.41386L22.4844 3.38556L22.6651 3.35901L22.8461 3.33425L23.0275 3.31125L23.2092 3.29003L23.3911 3.27057L23.5733 3.25292L23.7558 3.23705L23.9385 3.22296L24.1214 3.21068L25.1049 3.1543L25.161 7.91107L25.1931 7.9107L25.3289 7.91051L25.4648 7.91165L25.6006 7.91414L25.7366 7.91797L25.8725 7.92314L26.0084 7.92964L26.1444 7.9375L26.2804 7.9467L26.4163 7.95724L26.5523 7.96913L26.6881 7.98236L26.8239 7.99695L26.9596 8.01287L27.0952 8.03015L27.2307 8.04876L27.3661 8.06872L27.5013 8.09004L27.6365 8.11269L27.7714 8.13668L27.9062 8.16202L28.0407 8.1887L28.175 8.21672L28.3093 8.24608L28.4432 8.27677L28.5768 8.3088L28.7103 8.34216L28.8434 8.37687L28.9762 8.41289L29.1087 8.45025L29.241 8.48892L29.3729 8.52892L29.5044 8.57025L29.6356 8.61289L29.7665 8.65685L29.8969 8.70211L30.027 8.74869L30.1567 8.79656L30.2859 8.84575L30.4146 8.89622L30.543 8.94801L30.6708 9.00108L30.7982 9.05543L30.9251 9.11106L31.0515 9.16798L31.1773 9.22617L31.3027 9.28562L31.4275 9.34635L31.5517 9.40833L31.6754 9.47158L31.7985 9.53607L31.9209 9.6018L32.0428 9.66878L32.164 9.73699L32.2847 9.80643L32.4046 9.87709L32.5239 9.94899L32.6426 10.0221L32.7605 10.0964L32.8777 10.1719L32.9942 10.2485L33.11 10.3264L33.2251 10.4055L33.3393 10.4857L33.4529 10.5671L33.5657 10.6496L33.6776 10.7333L33.7888 10.8182L33.8991 10.9042L34.0087 10.9913L34.1173 11.0795L34.2252 11.1689L34.3322 11.2594L34.4383 11.3509L34.5436 11.4436L34.6479 11.5373L34.7513 11.6321L34.8538 11.728L34.9554 11.8249L35.056 11.9229L35.1557 12.0219L35.2544 12.122L35.3522 12.2231L35.449 12.3252L35.5447 12.4282L35.6395 12.5323L35.7332 12.6374L35.8259 12.7434L35.9176 12.8505L36.0082 12.9584L36.0978 13.0673L36.1863 13.1772L36.2737 13.2879L36.36 13.3996L36.4452 13.5122L36.5294 13.6257L36.6123 13.7401L36.6942 13.8553L36.7749 13.9715L36.8545 14.0884L36.933 14.2062L37.0102 14.3248L37.0863 14.4443L37.1611 14.5646L37.2349 14.6856L37.3074 14.8074L37.3787 14.93L37.4487 15.0534L37.5176 15.1775L37.5852 15.3024L37.6516 15.428L37.7167 15.5543L37.7805 15.6813L37.8431 15.8089L37.9044 15.9374L37.9645 16.0664L38.0232 16.1961L38.0807 16.3264L38.1368 16.4574L38.1916 16.589L38.2451 16.7211L38.2973 16.8539L38.3481 16.9872L38.3976 17.1212L38.4457 17.2556L38.4925 17.3907L38.538 17.5262L38.5821 17.6623L38.6248 17.7988L38.6662 17.9358L38.7061 18.0733L38.7447 18.2112L38.7819 18.3497L38.8177 18.4885L38.852 18.6277L38.8851 18.7674L38.9166 18.9075L38.9467 19.0479L38.9755 19.1887L39.0028 19.3299L39.0286 19.4713L39.0531 19.6132L39.0761 19.7552L39.0976 19.8976L39.1178 20.0404L39.1364 20.1833L39.1536 20.3265L39.1694 20.4699L39.1836 20.6136L39.1965 20.7574L39.2079 20.9015L39.2178 21.0457L39.2262 21.1902L39.2331 21.3347L39.2387 21.4794L39.2426 21.6242L39.2452 21.7691L39.2462 21.9141L39.2458 22.0592L39.2439 22.2044L39.2404 22.3497L39.2355 22.4948L39.2292 22.6401L39.2214 22.7854L39.212 22.9306L39.2012 23.0759L39.1888 23.2211L39.175 23.3663L39.1597 23.5113L39.1429 23.6563L39.1246 23.8012L39.1049 23.946L39.0835 24.0906L39.0608 24.2351L39.0366 24.3795L39.0108 24.5236L38.9836 24.6676L38.9549 24.8115L38.9247 24.9551L38.893 25.0984L38.8599 25.2415L38.8253 25.3844L38.7892 25.5269L38.7516 25.6692L38.7126 25.8111L38.6721 25.9528L38.6301 26.0941L38.5867 26.2351L38.5417 26.3757L38.4954 26.516L38.4476 26.6558L38.3983 26.7952L38.3476 26.9343L38.2954 27.0728L38.2418 27.2109L38.1868 27.3486L38.1303 27.4858L38.0724 27.6224L38.0131 27.7587L37.9524 27.8943L37.8902 28.0294L37.8266 28.164L37.7617 28.298L37.6953 28.4314L37.6276 28.5642L37.5584 28.6965L37.4879 28.8281L37.4159 28.9591L37.3427 29.0894L37.268 29.2191L37.192 29.3481L37.1147 29.4763L37.036 29.604L36.9559 29.7308L36.8745 29.857L36.7919 29.9823L36.7078 30.107L36.6225 30.2308L36.5358 30.354L36.4479 30.4762L36.3587 30.5977L36.2681 30.7184L36.1764 30.8383L36.0833 30.9572L35.989 31.0753L35.8935 31.1925L35.7967 31.3088L35.6986 31.4243L35.5994 31.5388L35.4989 31.6524L35.3972 31.7651L35.2944 31.8768L35.1903 31.9876L35.0851 32.0974L34.9787 32.2061L34.8711 32.3139L34.7623 32.4207L34.6525 32.5264L34.5415 32.6312L34.4295 32.7348L34.3162 32.8375L34.2019 32.939L34.0865 33.0394L33.97 33.1389L33.8525 33.2372L33.7339 33.3343L33.6142 33.4303L33.4935 33.5252L33.3718 33.619L33.2491 33.7115L33.1253 33.803L33.0007 33.8932L32.8749 33.9823L32.7483 34.0702L32.6207 34.1568L32.4921 34.2422L32.3626 34.3264L32.2323 34.4095L32.101 34.4911L31.9688 34.5716L31.8356 34.6508L31.7017 34.7288L31.5669 34.8054L31.4312 34.8807L31.2948 34.9548L31.1575 35.0275L31.0194 35.0989L30.8805 35.169L30.7408 35.2377L30.6004 35.3051L30.4592 35.3712L30.3172 35.4359L30.1746 35.4992L30.0313 35.5611L29.8872 35.6217L29.7425 35.6809L29.5971 35.7386L29.4511 35.795L29.3044 35.85L29.157 35.9034L29.0091 35.9556L28.8606 36.0062L28.7115 36.0554L28.5618 36.1032L28.4115 36.1495L28.2608 36.1944L28.1095 36.2377L27.9577 36.2797L27.8054 36.3202L27.6526 36.3591L27.4994 36.3966L27.3457 36.4326L27.1915 36.4671L27.037 36.5001L26.8821 36.5316L26.7267 36.5615L26.571 36.59L26.415 36.6169L26.2585 36.6423L26.1018 36.6662L25.9447 36.6885L25.7874 36.7093L25.6298 36.7286L25.4718 36.7463L25.3137 36.7625L25.1553 36.7771L24.9967 36.7902L24.8379 36.8017L24.679 36.8116L24.5198 36.8201L24.3604 36.8269L24.2011 36.8321L24.0414 36.8358L23.8818 36.8379L23.722 36.8385L23.5622 36.8375L23.4023 36.8349L23.2423 36.8308L23.0823 36.8249L22.9223 36.8176L22.7624 36.8088L22.6025 36.7983L22.4425 36.7862L22.2827 36.7726L22.1229 36.7573L21.9632 36.7406L21.8036 36.7222L21.6441 36.7023L21.4847 36.6807L21.3256 36.6575L21.1665 36.6329L21.0077 36.6066L20.8491 36.5788L20.6906 36.5493L20.5325 36.5183L20.3745 36.4858L20.2169 36.4516L20.0595 36.4159L19.9024 36.3787L19.7456 36.3399L19.5892 36.2995L19.4331 36.2575L19.2774 36.2141L19.122 36.169L18.967 36.1225L18.8125 36.0743L18.6583 36.0246L18.5047 35.9734L18.3514 35.9206L18.1986 35.8663L18.0464 35.8106L17.8946 35.7532L17.7434 35.6943L17.5927 35.634L17.4425 35.5721L17.293 35.5087L17.144 35.4438L16.9956 35.3775L16.8478 35.3096L16.7006 35.2402L16.5542 35.1694L16.4084 35.097L16.2632 35.0233L16.1187 34.9481L15.975 34.8714L15.8319 34.7933L15.6896 34.7137L15.5481 34.6327L15.4073 34.5503L15.2673 34.4664L15.1281 34.3812L14.9897 34.2944L14.8521 34.2064L14.7155 34.1169L14.5796 34.0261L14.4446 33.9338L14.3106 33.8403L14.1773 33.7454L14.0451 33.649L13.9137 33.5514L13.7833 33.4524L13.6538 33.3521L13.5254 33.2505L13.3979 33.1476L13.2714 33.0434L13.1459 32.9379L13.0214 32.8311L12.898 32.7231L12.7756 32.6137L12.6543 32.5031L12.5341 32.3914L12.4149 32.2783L12.2969 32.1641L12.18 32.0485L12.0642 31.9319L11.9496 31.8141L11.8361 31.695L11.7238 31.5748L11.6127 31.4535L11.5027 31.331L11.394 31.2073L11.2865 31.0826L11.1802 30.9567L11.0752 30.8298L10.9714 30.7017L10.8689 30.5727L10.7677 30.4425L10.6677 30.3113L10.569 30.179L10.4717 30.0457L10.3757 29.9113L10.281 29.776L10.1876 29.6398L10.0957 29.5025L10.005 29.3642L9.91578 29.2251L9.82791 29.085L9.74143 28.9439L9.65637 28.802L9.57272 28.6591L9.4905 28.5155L9.4097 28.3709L9.33035 28.2255L9.25246 28.0791L9.17602 27.932L9.10107 27.7841L9.02758 27.6354L8.9556 27.4859L8.8851 27.3356L8.81611 27.1846L8.74864 27.0328L8.68269 26.8804L8.61827 26.7271L8.55539 26.5732L8.49406 26.4186L8.43428 26.2633L8.37607 26.1075L8.31942 25.9509L8.26434 25.7938L8.21085 25.6361L8.15894 25.4777L8.10864 25.3188L8.05994 25.1593L8.01285 24.9993L7.96738 24.8387L7.92352 24.6776L7.88129 24.5161L7.84069 24.354L7.80174 24.1915L7.76443 24.0286L7.72877 23.8651L7.69476 23.7013L7.66241 23.5371L7.63173 23.3726L7.60271 23.2076L7.57537 23.0423L7.5497 22.8767L7.52572 22.7107L7.50342 22.5444L7.48282 22.3778L7.4639 22.211L7.44668 22.0439L7.43116 21.8767L7.41734 21.7091L7.40523 21.5413L7.39482 21.3734L7.38613 21.2053L7.37915 21.0371L7.37389 20.8687L7.37034 20.7002L7.36852 20.5316L7.36841 20.363ZM23.6245 8.01071L23.5862 4.76844L23.5499 4.77196L23.3831 4.78977L23.2168 4.80921L23.0505 4.8303L22.8849 4.85295L22.7195 4.87725L22.5542 4.90318L22.3895 4.9307L22.2249 4.95986L22.0611 4.99054L21.8971 5.02294L21.7343 5.05679L21.5712 5.09235L21.409 5.12942L21.2469 5.16814L21.0856 5.20834L20.9247 5.25016L20.7642 5.29354L20.6042 5.33848L20.445 5.38493L20.286 5.43298L20.1279 5.48252L19.9702 5.53364L19.8133 5.58617L19.6567 5.64036L19.5009 5.696L19.3459 5.75311L19.1913 5.81178L19.0375 5.87188L18.8846 5.93343L18.7321 5.99656L18.5803 6.06113L18.4293 6.12716L18.2792 6.19459L18.1298 6.26348L17.9812 6.33377L17.8331 6.4056L17.6862 6.47874L17.5399 6.55331L17.3946 6.62929L17.25 6.70667L17.1065 6.78537L16.9635 6.86553L16.8215 6.94708L16.6808 7.02979L16.5404 7.11412L16.4014 7.19957L16.2633 7.28635L16.1259 7.37455L15.9896 7.46404L15.8543 7.55484L15.7202 7.6467L15.5867 7.74019L15.4545 7.83468L15.3233 7.93048L15.193 8.02759L15.0639 8.12586L14.9359 8.2253L14.8088 8.32615L14.683 8.42795L14.5582 8.53109L14.4345 8.63535L14.312 8.74082L14.1907 8.84731L14.0703 8.95514L13.9513 9.06393L13.8333 9.17398L13.7166 9.28495L13.601 9.39713L13.4867 9.51031L13.3736 9.62462L13.2616 9.74011L13.151 9.85639L13.0417 9.97366L12.9334 10.0923L12.8265 10.2117L12.721 10.332L12.6166 10.4535L12.5136 10.5758L12.4118 10.6991L12.3114 10.8233L12.2123 10.9486L12.1145 11.0746L12.0181 11.2015L11.923 11.3294L11.8292 11.4582L11.7369 11.5876L11.6458 11.7182L11.5562 11.8494L11.468 11.9814L11.3811 12.1143L11.2957 12.2479L11.2116 12.3823L11.129 12.5174L11.0479 12.6532L10.9681 12.7899L10.8897 12.9274L10.8129 13.0653L10.7374 13.204L10.6634 13.3434L10.5909 13.4835L10.5198 13.6242L10.4502 13.7654L10.3821 13.9073L10.3155 14.0498L10.2503 14.193L10.1867 14.3365L10.1246 14.4808L10.0639 14.6255L10.0048 14.7707L9.94719 14.9165L9.89107 15.0628L9.8365 15.2095L9.78344 15.3567L9.73195 15.5042L9.68195 15.6523L9.63349 15.8008L9.58659 15.9497L9.54124 16.0988L9.4974 16.2485L9.45515 16.3984L9.41443 16.5487L9.37527 16.6993L9.33766 16.8503L9.30162 17.0015L9.26714 17.1529L9.23422 17.3047L9.20287 17.4567L9.17309 17.6089L9.14487 17.7613L9.11823 17.9139L9.09316 18.0667L9.06966 18.2196L9.04773 18.3727L9.02738 18.526L9.0086 18.6793L8.99139 18.8328L8.97576 18.9864L8.96171 19.14L8.94923 19.2936L8.93832 19.4473L8.92899 19.6011L8.92123 19.7548L8.91505 19.9086L8.91044 20.0623L8.9074 20.2159L8.90592 20.3695L8.90603 20.5231L8.90769 20.6766L8.91092 20.83L8.91571 20.9833L8.92206 21.1364L8.92998 21.2894L8.93944 21.4421L8.95046 21.5948L8.96304 21.7472L8.97716 21.8995L8.99283 22.0516L9.01004 22.2033L9.02879 22.3549L9.04907 22.5061L9.07089 22.6571L9.09425 22.8079L9.11911 22.9582L9.14551 23.1082L9.17342 23.258L9.20284 23.4073L9.23377 23.5563L9.2662 23.7049L9.30014 23.8531L9.33556 24.0009L9.37247 24.1482L9.41088 24.2952L9.45074 24.4415L9.4921 24.5876L9.53492 24.7331L9.57919 24.8781L9.62493 25.0226L9.6721 25.1665L9.72072 25.3099L9.77079 25.4527L9.82228 25.5951L9.87518 25.7367L9.92953 25.8778L9.98526 26.0183L10.0424 26.1582L10.1009 26.2974L10.1609 26.4359L10.2222 26.5738L10.2849 26.7111L10.3489 26.8476L10.4143 26.9834L10.4811 27.1185L10.5492 27.2529L10.6186 27.3866L10.6893 27.5194L10.7614 27.6516L10.8348 27.7828L10.9095 27.9134L10.9854 28.0431L11.0627 28.172L11.1412 28.3001L11.221 28.4273L11.302 28.5536L11.3843 28.6792L11.4679 28.8038L11.5526 28.9275L11.6386 29.0504L11.7257 29.1723L11.8141 29.2933L11.9037 29.4134L11.9944 29.5325L12.0863 29.6506L12.1793 29.7678L12.2735 29.884L12.3688 29.9993L12.4652 30.1135L12.5628 30.2266L12.6615 30.3388L12.7612 30.45L12.862 30.56L12.9639 30.6691L13.0669 30.777L13.1708 30.884L13.2759 30.9898L13.3819 31.0945L13.489 31.1982L13.597 31.3007L13.7061 31.4021L13.8161 31.5024L13.9271 31.6015L14.0389 31.6995L14.1518 31.7963L14.2657 31.892L14.3803 31.9865L14.4959 32.0799L14.6124 32.1719L14.7297 32.2628L14.8479 32.3526L14.9671 32.4411L15.0869 32.5284L15.2077 32.6144L15.3291 32.6992L15.4515 32.7828L15.5746 32.8651L15.6986 32.9462L15.8232 33.026L15.9486 33.1045L16.0747 33.1818L16.2015 33.2578L16.3291 33.3325L16.4573 33.4058L16.5862 33.4779L16.7157 33.5487L16.846 33.6181L16.9768 33.6863L17.1082 33.7531L17.2404 33.8185L17.3731 33.8827L17.5063 33.9455L17.6401 34.007L17.7744 34.0671L17.9094 34.1258L18.0448 34.1832L18.1808 34.2393L18.3172 34.2939L18.4541 34.3471L18.5915 34.3991L18.7292 34.4496L18.8675 34.4987L19.0062 34.5465L19.1453 34.5929L19.2848 34.6378L19.4246 34.6814L19.5649 34.7236L19.7055 34.7643L19.8464 34.8036L19.9877 34.8416L20.1292 34.8782L20.271 34.9133L20.4131 34.947L20.5555 34.9793L20.6981 35.0101L20.8409 35.0396L20.984 35.0676L21.1273 35.0943L21.2707 35.1194L21.4144 35.1432L21.5581 35.1655L21.7021 35.1864L21.8462 35.2058L21.9903 35.2239L22.1346 35.2405L22.279 35.2557L22.4235 35.2695L22.568 35.2818L22.7125 35.2927L22.8571 35.3022L23.0017 35.3103L23.1462 35.3168L23.2908 35.322L23.4353 35.3258L23.5799 35.3281L23.7242 35.329L23.8686 35.3285L24.0129 35.3266L24.157 35.3233L24.3011 35.3185L24.445 35.3124L24.5888 35.3048L24.7323 35.2958L24.8758 35.2854L25.0191 35.2736L25.1621 35.2604L25.3049 35.2458L25.4475 35.2297L25.5898 35.2124L25.7319 35.1936L25.8736 35.1734L26.0152 35.1519L26.1563 35.1289L26.2973 35.1046L26.4379 35.0789L26.5781 35.0519L26.7179 35.0235L26.8574 34.9937L26.9965 34.9626L27.1352 34.9301L27.2735 34.8963L27.4113 34.8612L27.5487 34.8246L27.6856 34.7868L27.8222 34.7476L27.9582 34.7071L28.0938 34.6654L28.2287 34.6223L28.3633 34.5779L28.4973 34.5322L28.6306 34.4852L28.7635 34.4369L28.8958 34.3874L29.0275 34.3365L29.1586 34.2845L29.2891 34.2312L29.419 34.1765L29.5482 34.1207L29.6768 34.0636L29.8047 34.0053L29.932 33.9458L30.0586 33.885L30.1844 33.8231L30.3097 33.7599L30.4341 33.6955L30.5578 33.63L30.6809 33.5632L30.803 33.4953L30.9245 33.4263L31.0451 33.3561L31.1652 33.2847L31.2841 33.2123L31.4026 33.1386L31.5199 33.0639L31.6366 32.9881L31.7524 32.9111L31.8674 32.833L31.9813 32.754L32.0945 32.6737L32.2068 32.5924L32.3182 32.5102L32.4288 32.4267L32.5383 32.3424L32.6471 32.2569L32.7547 32.1705L32.8614 32.0831L32.9674 31.9945L33.0722 31.905L33.176 31.8147L33.2789 31.7232L33.3808 31.6309L33.4817 31.5376L33.5816 31.4434L33.6803 31.3483L33.7782 31.2521L33.875 31.1551L33.9708 31.0573L34.0655 30.9585L34.159 30.859L34.2515 30.7586L34.3431 30.657L34.4333 30.555L34.5227 30.4519L34.6108 30.3482L34.6978 30.2435L34.7837 30.1381L34.8685 30.0319L34.9522 29.9249L35.0346 29.8173L35.1161 29.7087L35.1962 29.5996L35.2753 29.4896L35.3533 29.3789L35.4298 29.2677L35.5054 29.1556L35.5797 29.0431L35.6528 28.9296L35.7249 28.8155L35.7955 28.701L35.865 28.5858L35.9333 28.4697L36.0003 28.3534L36.0661 28.2362L36.1308 28.1185L36.1941 28.0004L36.2562 27.8815L36.3171 27.7621L36.3766 27.6426L36.435 27.5221L36.4921 27.4012L36.5479 27.2799L36.6024 27.1582L36.6557 27.0359L36.7076 26.9133L36.7584 26.79L36.8078 26.6664L36.8559 26.5427L36.9027 26.418L36.9482 26.2934L36.9924 26.1682L37.0354 26.0427L37.077 25.9168L37.1172 25.7909L37.1563 25.6641L37.1939 25.5375L37.2302 25.4104L37.2652 25.2831L37.299 25.1554L37.3313 25.0276L37.3624 24.8995L37.3921 24.7711L37.4205 24.6425L37.4476 24.5137L37.4733 24.3849L37.4977 24.2556L37.5208 24.1266L37.5425 23.9971L37.5629 23.8675L37.5819 23.7379L37.5997 23.608L37.6161 23.4783L37.6312 23.3481L37.6448 23.2183L37.6573 23.0881L37.6683 22.9582L37.678 22.8278L37.6864 22.698L37.6934 22.5677L37.6991 22.4373L37.7035 22.3073L37.7066 22.1775L37.7083 22.0473L37.7087 21.9172L37.7078 21.7874L37.7055 21.6576L37.7019 21.5279L37.6969 21.3986L37.6907 21.2688L37.6832 21.1396L37.6743 21.0105L37.6641 20.8817L37.6526 20.7527L37.6399 20.6243L37.6258 20.4958L37.6104 20.3677L37.5937 20.2397L37.5757 20.1121L37.5563 19.9844L37.5358 19.8574L37.514 19.7307L37.4908 19.604L37.4663 19.4777L37.4407 19.3519L37.4136 19.226L37.3855 19.101L37.3559 18.9759L37.3253 18.8516L37.2932 18.7271L37.26 18.6036L37.2255 18.4802L37.1898 18.3571L37.1528 18.2347L37.1147 18.1128L37.0752 17.9909L37.0346 17.87L36.9927 17.7492L36.9497 17.6291L36.9055 17.5092L36.8601 17.3903L36.8133 17.2714L36.7655 17.1533L36.7166 17.0359L36.6665 16.919L36.615 16.8023L36.5628 16.6867L36.509 16.5711L36.4543 16.4567L36.3984 16.3427L36.3413 16.2291L36.2832 16.1164L36.2239 16.0042L36.1635 15.8926L36.1022 15.782L36.0396 15.6717L35.976 15.5623L35.9111 15.4534L35.8455 15.3456L35.7785 15.2381L35.7107 15.1316L35.6417 15.0255L35.5717 14.9204L35.5008 14.8163L35.4287 14.7125L35.3556 14.6097L35.2816 14.5076L35.2065 14.4065L35.1305 14.306L35.0535 14.2064L34.9756 14.1076L34.8966 14.0096L34.8168 13.9125L34.7359 13.8162L34.6541 13.7208L34.5715 13.6262L34.488 13.5326L34.4035 13.4398L34.318 13.3477L34.232 13.2569L34.1446 13.1667L34.0568 13.0777L33.9679 12.9893L33.8783 12.9021L33.7875 12.8155L33.6964 12.7303L33.6042 12.6458L33.5111 12.5622L33.4176 12.4798L33.3231 12.3983L33.2276 12.3175L33.1315 12.2379L33.0348 12.1593L32.9373 12.0818L32.8389 12.0052L32.7401 11.9298L32.6402 11.855L32.54 11.7817L32.4389 11.7092L32.337 11.6377L32.2348 11.5674L32.1314 11.498L32.0281 11.4299L31.9235 11.3626L31.8187 11.2965L31.713 11.2314L31.6069 11.1674L31.5002 11.1046L31.393 11.043L31.2849 10.9821L31.1768 10.9226L31.0677 10.8641L30.9582 10.8068L30.8483 10.7506L30.7378 10.6954L30.6268 10.6414L30.5154 10.5886L30.4034 10.5368L30.2911 10.4863L30.1783 10.4367L30.0615 10.3869L29.9516 10.3413L29.8372 10.2952L29.723 10.2505L29.608 10.2066L29.4929 10.1641L29.3773 10.1227L29.2614 10.0825L29.1451 10.0434L29.0286 10.0056L28.9117 9.96887L28.7945 9.93333L28.6772 9.89906L28.5594 9.86584L28.4412 9.83378L28.3232 9.80301L28.2049 9.77342L28.0859 9.74492L27.9673 9.71772L27.848 9.69162L27.7288 9.66678L27.6092 9.64306L27.4898 9.6206L27.37 9.59929L27.2503 9.57922L27.13 9.56028L27.01 9.54258L26.8898 9.52606L26.7694 9.51073L26.649 9.4966L26.5286 9.48368L26.4082 9.47194L26.2876 9.4614L26.167 9.45204L26.0463 9.44387L25.9259 9.43692L25.8054 9.43115L25.6845 9.42656L25.5643 9.42317L25.4439 9.42097L25.3235 9.41996L25.2029 9.42012L25.1788 9.4204L25.2168 12.6391L25.2852 12.6388L25.3732 12.6393L25.4612 12.6406L25.5492 12.6429L25.6374 12.646L25.7256 12.65L25.8137 12.6549L25.902 12.6607L25.9902 12.6673L26.0785 12.6748L26.1667 12.6832L26.2549 12.6925L26.3432 12.7027L26.4313 12.7137L26.5194 12.7256L26.6075 12.7385L26.6955 12.7521L26.7834 12.7667L26.8713 12.7822L26.9591 12.7985L27.0467 12.8158L27.1343 12.8339L27.2218 12.8528L27.3091 12.8727L27.3963 12.8935L27.4834 12.9151L27.5702 12.9376L27.6569 12.961L27.7435 12.9853L27.8299 13.0105L27.9162 13.0365L28.0022 13.0633L28.0879 13.0911L28.1735 13.1198L28.2589 13.1493L28.3439 13.1797L28.4288 13.211L28.5134 13.2431L28.5978 13.2761L28.6818 13.3099L28.7656 13.3446L28.8491 13.3802L28.9323 13.4166L29.0152 13.4539L29.0977 13.492L29.18 13.531L29.2619 13.5708L29.3435 13.6115L29.4247 13.653L29.5055 13.6953L29.586 13.7385L29.6661 13.7825L29.7458 13.8273L29.8251 13.8729L29.904 13.9194L29.9825 13.9668L30.0605 14.0148L30.1381 14.0638L30.2153 14.1135L30.2921 14.1641L30.3683 14.2154L30.4442 14.2675L30.5195 14.3204L30.5943 14.3741L30.6686 14.4286L30.7425 14.4839L30.8159 14.5399L30.8886 14.5967L30.9609 14.6543L31.0326 14.7126L31.1039 14.7717L31.1745 14.8316L31.2446 14.8921L31.3142 14.9535L31.3831 15.0155L31.4515 15.0783L31.5192 15.1418L31.5864 15.2061L31.6529 15.271L31.7188 15.3367L31.7842 15.4031L31.8489 15.4702L31.913 15.5379L31.9763 15.6063L32.0391 15.6755L32.1011 15.7453L32.1625 15.8157L32.2233 15.8868L32.2833 15.9586L32.3427 16.031L32.4014 16.1041L32.4593 16.1778L32.5166 16.2521L32.5731 16.3271L32.6289 16.4027L32.6839 16.4788L32.7383 16.5556L32.7918 16.633L32.8446 16.711L32.8967 16.7896L32.9479 16.8687L32.9984 16.9484L33.0482 17.0287L33.0971 17.1094L33.1453 17.1908L33.1926 17.2727L33.2392 17.3551L33.2849 17.438L33.3298 17.5215L33.3739 17.6054L33.4172 17.6899L33.4595 17.7748L33.5012 17.8603L33.5419 17.9462L33.5818 18.0325L33.6208 18.1194L33.6589 18.2067L33.6963 18.2944L33.7327 18.3826L33.7683 18.4712L33.8029 18.5602L33.8366 18.6495L33.8695 18.7394L33.9015 18.8296L33.9326 18.9202L33.9628 19.0111L33.992 19.1025L34.0203 19.1941L34.0478 19.2862L34.0743 19.3785L34.0999 19.4713L34.1244 19.5643L34.1482 19.6576L34.1709 19.7513L34.1927 19.8452L34.2136 19.9394L34.2335 20.0339L34.2525 20.1286L34.2704 20.2236L34.2874 20.3189L34.3036 20.4144L34.3187 20.5101L34.3327 20.6061L34.3459 20.7022L34.3581 20.7985L34.3693 20.8951L34.3795 20.9919L34.3887 21.0887L34.397 21.1858L34.4042 21.283L34.4105 21.3803L34.4157 21.4777L34.42 21.5753L34.4233 21.6731L34.4255 21.7709L34.4268 21.8688L34.427 21.9668L34.4263 22.0649L34.4245 22.163L34.4218 22.2612L34.418 22.3594L34.4132 22.4576L34.4074 22.5559L34.4006 22.6543L34.3928 22.7525L34.3839 22.8508L34.3741 22.9491L34.3632 23.0473L34.3514 23.1455L34.3384 23.2436L34.3245 23.3418L34.3096 23.4398L34.2937 23.5377L34.2767 23.6356L34.2587 23.7333L34.2397 23.831L34.2197 23.9285L34.1986 24.026L34.1766 24.1232L34.1536 24.2203L34.1295 24.3172L34.1044 24.4141L34.0783 24.5107L34.0512 24.6071L34.0231 24.7033L33.994 24.7993L33.9639 24.8951L33.9327 24.9907L33.9006 25.0859L33.8674 25.181L33.8334 25.2758L33.7982 25.3703L33.762 25.4645L33.725 25.5585L33.6869 25.6521L33.6478 25.7455L33.6077 25.8385L33.5667 25.9312L33.5246 26.0236L33.4816 26.1156L33.4377 26.2072L33.3927 26.2985L33.3467 26.3893L33.2998 26.4799L33.252 26.5699L33.2032 26.6596L33.1534 26.7488L33.1028 26.8377L33.0511 26.926L32.9985 27.014L32.945 27.1014L32.8905 27.1885L32.8351 27.275L32.7788 27.361L32.7215 27.4465L32.6634 27.5316L32.6043 27.6161L32.5443 27.7001L32.4834 27.7835L32.4217 27.8665L32.359 27.9488L32.2954 28.0306L32.231 28.1118L32.1656 28.1924L32.0995 28.2724L32.0324 28.3519L31.9645 28.4308L31.8957 28.509L31.8261 28.5866L31.7556 28.6635L31.6843 28.7398L31.6122 28.8155L31.5392 28.8905L31.4655 28.9648L31.3908 29.0384L31.3155 29.1114L31.2393 29.1837L31.1623 29.2552L31.0846 29.3261L31.006 29.3962L30.9267 29.4655L30.8466 29.5343L30.7658 29.6021L30.6842 29.6693L30.6019 29.7357L30.5187 29.8013L30.4349 29.8661L30.3505 29.9302L30.2652 29.9935L30.1792 30.0559L30.0927 30.1177L30.0053 30.1785L29.9173 30.2385L29.8286 30.2977L29.7392 30.3561L29.6492 30.4136L29.5586 30.4703L29.4673 30.526L29.3754 30.581L29.2828 30.6351L29.1897 30.6882L29.0959 30.7405L29.0015 30.7919L28.9066 30.8425L28.811 30.8921L28.7149 30.9407L28.6182 30.9885L28.521 31.0354L28.4232 31.0813L28.3249 31.1263L28.226 31.1703L28.1267 31.2134L28.0268 31.2555L27.9265 31.2967L27.8256 31.337L27.7243 31.3762L27.6226 31.4145L27.5203 31.4518L27.4176 31.4881L27.3144 31.5234L27.2109 31.5577L27.1069 31.591L27.0025 31.6233L26.8978 31.6547L26.7926 31.6849L26.687 31.7142L26.5811 31.7424L26.4748 31.7696L26.3682 31.7958L26.2612 31.821L26.1538 31.8451L26.0463 31.8681L25.9383 31.8901L25.8301 31.9111L25.7216 31.9311L25.6128 31.9499L25.5038 31.9677L25.3945 31.9844L25.285 32L25.1752 32.0146L25.0652 32.0282L24.9551 32.0405L24.8447 32.0519L24.7341 32.0622L24.6234 32.0714L24.5125 32.0794L24.4014 32.0864L24.2901 32.0923L24.1788 32.0971L24.0673 32.1008L23.9558 32.1034L23.8441 32.1049L23.7323 32.1054L23.6205 32.1047L23.5086 32.1028L23.3966 32.1L23.2847 32.0959L23.1727 32.0908L23.0606 32.0846L22.9486 32.0772L22.8365 32.0688L22.7245 32.0592L22.6125 32.0485L22.5005 32.0367L22.3886 32.0239L22.2768 32.0099L22.165 31.9947L22.0533 31.9785L21.9418 31.9611L21.8303 31.9427L21.7189 31.9231L21.6076 31.9024L21.4966 31.8806L21.3857 31.8576L21.2748 31.8336L21.1643 31.8085L21.0539 31.7823L20.9437 31.7549L20.8337 31.7264L20.7239 31.6969L20.6143 31.6662L20.5051 31.6345L20.396 31.6016L20.2872 31.5677L20.1788 31.5326L20.0706 31.4964L19.9627 31.4592L19.8551 31.4209L19.7479 31.3815L19.6409 31.341L19.5344 31.2994L19.4282 31.2568L19.3223 31.213L19.2169 31.1682L19.1119 31.1224L19.0072 31.0754L18.903 31.0274L18.7992 30.9784L18.6958 30.9283L18.5929 30.8771L18.4904 30.8249L18.3885 30.7716L18.287 30.7173L18.186 30.662L18.0855 30.6057L17.9855 30.5482L17.886 30.4899L17.7871 30.4304L17.6887 30.37L17.5909 30.3086L17.4936 30.2461L17.397 30.1827L17.3009 30.1182L17.2055 30.0527L17.1106 29.9864L17.0164 29.919L16.9228 29.8506L16.8298 29.7813L16.7375 29.711L16.6459 29.6398L16.5549 29.5676L16.4647 29.4944L16.3751 29.4204L16.2861 29.3454L16.198 29.2695L16.1106 29.1926L16.0238 29.1149L15.9378 29.0362L15.8527 28.9567L15.7682 28.8763L15.6845 28.795L15.6016 28.7128L15.5196 28.6298L15.4383 28.5458L15.3577 28.4611L15.278 28.3754L15.1993 28.289L15.1213 28.2017L15.0441 28.1136L14.9678 28.0247L14.8923 27.935L14.8178 27.8445L14.7441 27.7531L14.6714 27.6611L14.5995 27.5682L14.5285 27.4746L14.4584 27.3801L14.3892 27.2851L14.321 27.1892L14.2538 27.0926L14.1875 26.9952L14.1221 26.8972L14.0578 26.7985L13.9944 26.6991L13.9319 26.5989L13.8705 26.4981L13.81 26.3967L13.7506 26.2946L13.6921 26.1918L13.6347 26.0884L13.5783 25.9844L13.523 25.8798L13.4686 25.7745L13.4154 25.6687L13.3631 25.5622L13.312 25.4552L13.2619 25.3476L13.2129 25.2394L13.1649 25.1308L13.118 25.0216L13.0723 24.9118L13.0276 24.8015L12.984 24.6908L12.9416 24.5795L12.9002 24.4677L12.86 24.3556L12.8209 24.2428L12.7829 24.1297L12.7461 24.0161L12.7104 23.9021L12.6758 23.7877L12.6424 23.6729L12.6102 23.5577L12.5791 23.442L12.5492 23.326L12.5205 23.2097L12.4929 23.093L12.4665 22.9759L12.4413 22.8585L12.4173 22.7409L12.3945 22.6229L12.3728 22.5046L12.3524 22.386L12.3332 22.2672L12.3151 22.1481L12.2983 22.0288L12.2827 21.9092L12.2683 21.7894L12.2552 21.6694L12.2432 21.5492L12.2325 21.4288L12.223 21.3082L12.2147 21.1876L12.2077 21.0666L12.2019 20.9456L12.1973 20.8245L12.194 20.7033L12.1919 20.5819L12.191 20.4604L12.1914 20.3389L12.193 20.2173L12.1959 20.0957L12.2 19.974L12.2054 19.8522L12.212 19.7305L12.2199 19.6088L12.229 19.4871L12.2394 19.3653L12.251 19.2437L12.2639 19.122L12.278 19.0005L12.2934 18.879L12.3101 18.7576L12.3279 18.6362L12.3471 18.5151L12.3675 18.394L12.3891 18.273L12.412 18.1522L12.4362 18.0315L12.4615 17.9111L12.4882 17.7908L12.5161 17.6707L12.5452 17.5508L12.5756 17.4311L12.6072 17.3117L12.64 17.1924L12.6741 17.0735L12.7095 16.9549L12.746 16.8365L12.7838 16.7183L12.8228 16.6006L12.8631 16.4831L12.9046 16.366L12.9473 16.2492L12.9912 16.1327L13.0363 16.0167L13.0827 15.901L13.1302 15.7857L13.179 15.6708L13.229 15.5563L13.2801 15.4423L13.3325 15.3287L13.386 15.2155L13.4408 15.1028L13.4967 14.9907L13.5538 14.8789L13.6121 14.7678L13.6715 14.657L13.7321 14.5469L13.7939 14.4372L13.8568 14.3281L13.9209 14.2196L13.9862 14.1117L14.0525 14.0043L14.12 13.8975L14.1887 13.7913L14.2585 13.6858L14.3293 13.5809L14.4013 13.4767L14.4744 13.373L14.5485 13.27L14.6239 13.1678L14.7002 13.0661L14.7777 12.9652L14.8563 12.865L14.9359 12.7656L15.0165 12.6669L15.0982 12.5689L15.181 12.4716L15.2648 12.3751L15.3496 12.2794L15.4355 12.1845L15.5223 12.0904L15.6102 11.9971L15.6992 11.9045L15.789 11.8129L15.8799 11.722L15.9717 11.632L16.0646 11.5429L16.1584 11.4546L16.2531 11.3673L16.3488 11.2807L16.4454 11.1951L16.5429 11.1104L16.6414 11.0266L16.7408 10.9438L16.8411 10.8618L16.9422 10.7808L17.0443 10.7008L17.1473 10.6217L17.251 10.5437L17.3557 10.4665L17.4612 10.3904L17.5675 10.3153L17.6747 10.2412L17.7826 10.1681L17.8914 10.0961L18.001 10.025L18.1113 9.95505L18.2225 9.88612L18.3344 9.81824L18.447 9.75143L18.5604 9.68569L18.6745 9.62103L18.7894 9.55746L18.9049 9.495L19.0212 9.43365L19.1381 9.3734L19.2557 9.31428L19.374 9.25628L19.493 9.19943L19.6126 9.14371L19.7328 9.08914L19.8537 9.03573L19.9752 8.98348L20.0972 8.93241L20.2199 8.88251L20.343 8.83379L20.4668 8.78626L20.5911 8.73993L20.7161 8.6948L20.8415 8.65088L20.9674 8.60817L21.0938 8.56668L21.2207 8.52641L21.3481 8.48737L21.4759 8.44957L21.6043 8.41302L21.733 8.3777L21.8622 8.34364L21.9918 8.31083L22.1218 8.27928L22.2522 8.24901L22.3829 8.21999L22.5141 8.19225L22.6455 8.16579L22.7774 8.14062L22.9095 8.11673L23.042 8.09413L23.1748 8.07282L23.3078 8.05281L23.4411 8.03411L23.5747 8.01671L23.6245 8.01071ZM23.6809 12.7847L23.6424 9.53063L23.533 9.54599L23.4153 9.56369L23.2975 9.58258L23.1805 9.60255L23.0633 9.62374L22.9467 9.64601L22.8303 9.66943L22.7144 9.69394L22.5987 9.71962L22.4833 9.74643L22.3682 9.77435L22.2536 9.80337L22.1391 9.83355L22.0291 9.86369L21.9119 9.89712L21.7987 9.93055L21.6861 9.96508L21.574 10.0006L21.4622 10.0373L21.3508 10.0751L21.2399 10.114L21.1295 10.1538L21.0197 10.1948L20.9103 10.2367L20.8013 10.2799L20.6932 10.3239L20.585 10.3691L20.4777 10.4153L20.3709 10.4624L20.2649 10.5106L20.1591 10.5599L20.0539 10.6101L19.9497 10.6612L19.8455 10.7135L19.7425 10.7667L19.6397 10.821L19.5378 10.876L19.4362 10.9323L19.3355 10.9892L19.2355 11.0473L19.136 11.1063L19.0373 11.1662L18.939 11.2271L18.8418 11.2888L18.745 11.3515L18.6491 11.4151L18.5539 11.4795L18.4594 11.5449L18.3654 11.6113L18.2725 11.6783L18.1802 11.7464L18.0886 11.8153L17.9978 11.885L17.9079 11.9555L17.8185 12.027L17.7302 12.0991L17.6426 12.1721L17.5557 12.2462L17.4699 12.3207L17.3847 12.3962L17.3003 12.4725L17.2168 12.5495L17.1343 12.6272L17.0523 12.7059L16.9715 12.785L16.8915 12.865L16.8122 12.9459L16.7339 13.0273L16.6565 13.1096L16.58 13.1924L16.5044 13.276L16.4297 13.3603L16.3558 13.4453L16.2831 13.5308L16.2111 13.6171L16.1401 13.7041L16.07 13.7916L16.001 13.8797L15.9327 13.9686L15.8655 14.058L15.7992 14.148L15.734 14.2386L15.6696 14.3298L15.6064 14.4214L15.5441 14.5137L15.4826 14.6066L15.4222 14.7L15.3629 14.7938L15.3046 14.8882L15.2473 14.9833L15.1909 15.0786L15.1356 15.1745L15.0812 15.2709L15.0281 15.3676L14.9758 15.4649L14.9245 15.5628L14.8744 15.6608L14.8252 15.7595L14.7771 15.8585L14.7301 15.9578L14.6841 16.0577L14.6391 16.1578L14.5953 16.2584L14.5524 16.3593L14.5107 16.4605L14.47 16.562L14.4303 16.664L14.3918 16.7663L14.3543 16.8687L14.3179 16.9716L14.2826 17.0746L14.2483 17.178L14.2152 17.2817L14.183 17.3856L14.1521 17.4897L14.1221 17.594L14.0934 17.6985L14.0656 17.8034L14.039 17.9083L14.0134 18.0135L13.989 18.1188L13.9656 18.2243L13.9433 18.33L13.9222 18.4357L13.9021 18.5416L13.8831 18.6477L13.8653 18.7538L13.8485 18.8601L13.8328 18.9663L13.8182 19.0727L13.8048 19.1791L13.7924 19.2857L13.7811 19.3922L13.7709 19.4988L13.7618 19.6054L13.7538 19.7119L13.747 19.8186L13.7411 19.9252L13.7364 20.0318L13.7328 20.1383L13.7303 20.2447L13.7289 20.3512L13.7285 20.4576L13.7293 20.5639L13.7311 20.6701L13.734 20.7762L13.738 20.8821L13.7431 20.9881L13.7493 21.0938L13.7565 21.1993L13.7648 21.3049L13.7742 21.4101L13.7847 21.5152L13.7962 21.6201L13.8087 21.7249L13.8224 21.8295L13.8371 21.9338L13.8529 22.0379L13.8697 22.1417L13.8875 22.2453L13.9064 22.3487L13.9264 22.4517L13.9474 22.5546L13.9694 22.6571L13.9924 22.7594L14.0165 22.8612L14.0416 22.9629L14.0677 23.0642L14.0949 23.1652L14.123 23.2657L14.1522 23.366L14.1823 23.4659L14.2135 23.5654L14.2456 23.6646L14.2788 23.7633L14.3129 23.8616L14.348 23.9595L14.384 24.057L14.4211 24.1541L14.4591 24.2507L14.498 24.3469L14.538 24.4426L14.5788 24.5379L14.6207 24.6326L14.6634 24.7269L14.7071 24.8207L14.7517 24.914L14.7972 25.0068L14.8437 25.099L14.891 25.1908L14.9392 25.282L14.9884 25.3726L15.0384 25.4627L15.0893 25.5522L15.1411 25.6411L15.1937 25.7295L15.2473 25.8173L15.3016 25.9044L15.3568 25.991L15.4129 26.0771L15.4697 26.1623L15.5275 26.2471L15.586 26.3311L15.6454 26.4146L15.7055 26.4974L15.7665 26.5795L15.8283 26.6609L15.8909 26.7417L15.9541 26.8218L16.0182 26.9012L16.083 26.98L16.1486 27.058L16.215 27.1353L16.2821 27.212L16.3499 27.2878L16.4184 27.363L16.4876 27.4373L16.5576 27.511L16.6282 27.5839L16.6996 27.6561L16.7716 27.7275L16.8443 27.7982L16.9177 27.8681L16.9916 27.9371L17.0664 28.0055L17.1416 28.073L17.2176 28.1396L17.2941 28.2056L17.3713 28.2707L17.4491 28.335L17.5274 28.3984L17.6064 28.4611L17.6859 28.5229L17.766 28.5839L17.8467 28.6441L17.9278 28.7034L18.0096 28.7618L18.0918 28.8194L18.1746 28.8762L18.258 28.9321L18.3418 28.9871L18.4261 29.0412L18.511 29.0945L18.5962 29.1469L18.6819 29.1984L18.7682 29.249L18.8547 29.2987L18.9419 29.3476L19.0293 29.3955L19.1173 29.4426L19.2056 29.4887L19.2943 29.5338L19.3835 29.5782L19.4731 29.6216L19.5629 29.6641L19.6531 29.7056L19.7438 29.7463L19.8346 29.786L19.9259 29.8247L20.0175 29.8626L20.1095 29.8995L20.2016 29.9354L20.2941 29.9705L20.3869 30.0046L20.4799 30.0377L20.5732 30.0699L20.6668 30.1012L20.7606 30.1315L20.8546 30.1609L20.9489 30.1892L21.0434 30.2167L21.138 30.2432L21.2329 30.2687L21.3279 30.2934L21.4232 30.317L21.5185 30.3396L21.6141 30.3614L21.7098 30.3822L21.8056 30.402L21.9015 30.4207L21.9976 30.4386L22.0937 30.4555L22.19 30.4715L22.2863 30.4864L22.3827 30.5005L22.4792 30.5135L22.5756 30.5257L22.6722 30.5368L22.7687 30.547L22.8654 30.5561L22.962 30.5644L23.0587 30.5716L23.1553 30.578L23.2519 30.5833L23.3484 30.5878L23.4451 30.5913L23.5415 30.5938L23.6379 30.5953L23.7343 30.5959L23.8306 30.5956L23.9268 30.5942L24.023 30.592L24.1189 30.5888L24.2149 30.5847L24.3106 30.5796L24.4062 30.5736L24.5017 30.5666L24.5971 30.5587L24.6922 30.5498L24.7873 30.5401L24.8822 30.5294L24.9768 30.5177L25.0712 30.5052L25.1654 30.4918L25.2595 30.4774L25.3533 30.4621L25.4467 30.4459L25.5401 30.4287L25.6331 30.4107L25.7259 30.3919L25.8185 30.372L25.9106 30.3513L26.0026 30.3297L26.0942 30.3071L26.1855 30.2838L26.2766 30.2596L26.3672 30.2344L26.4576 30.2084L26.5476 30.1815L26.6372 30.1538L26.7265 30.1252L26.8155 30.0957L26.904 30.0654L26.9921 30.0342L27.0799 30.0022L27.1672 29.9694L27.2541 29.9357L27.3406 29.9012L27.4268 29.8658L27.5124 29.8297L27.5976 29.7927L27.6824 29.755L27.7666 29.7164L27.8505 29.677L27.9339 29.6368L28.0166 29.596L28.0991 29.5541L28.1809 29.5117L28.2624 29.4683L28.3431 29.4244L28.4234 29.3796L28.5033 29.334L28.5825 29.2877L28.6613 29.2406L28.7395 29.1929L28.817 29.1444L28.8941 29.0951L28.9705 29.0452L29.0464 28.9945L29.1218 28.9431L29.1965 28.8911L29.2705 28.8384L29.3441 28.7849L29.4169 28.7309L29.4893 28.6761L29.561 28.6206L29.6318 28.5646L29.7023 28.5077L29.7721 28.4503L29.841 28.3924L29.9096 28.3335L29.9773 28.2743L30.0443 28.2145L30.111 28.1538L30.1766 28.0928L30.2416 28.0311L30.3061 27.9688L30.3697 27.906L30.4327 27.8425L30.495 27.7785L30.5566 27.7139L30.6173 27.6488L30.6775 27.5831L30.7369 27.5169L30.7955 27.4503L30.8535 27.3829L30.9107 27.3152L30.967 27.247L31.0228 27.1781L31.0777 27.1091L31.1319 27.0393L31.1853 26.9691L31.238 26.8984L31.2898 26.8273L31.3408 26.7559L31.3913 26.6837L31.4408 26.6114L31.4895 26.5385L31.5376 26.4652L31.5845 26.3917L31.631 26.3176L31.6766 26.2431L31.7214 26.1683L31.7652 26.0931L31.8085 26.0174L31.8507 25.9417L31.8923 25.8652L31.933 25.7887L31.9728 25.7118L32.012 25.6343L32.05 25.557L32.0875 25.4788L32.1239 25.4009L32.1599 25.3222L32.1946 25.2436L32.2287 25.1644L32.2619 25.0852L32.2942 25.0058L32.3258 24.9259L32.3565 24.8458L32.3862 24.7658L32.4153 24.6852L32.4433 24.6045L32.4706 24.5236L32.497 24.4426L32.5226 24.3612L32.5473 24.2798L32.5712 24.1983L32.5941 24.1164L32.6162 24.0345L32.6375 23.9524L32.6579 23.8703L32.6774 23.7881L32.6962 23.7055L32.7139 23.6229L32.731 23.5403L32.747 23.4577L32.7623 23.3749L32.7766 23.2918L32.7901 23.209L32.8028 23.126L32.8145 23.0429L32.8254 22.9599L32.8355 22.8768L32.8447 22.7935L32.853 22.7107L32.8606 22.6272L32.8672 22.5441L32.8729 22.4612L32.8779 22.378L32.8819 22.2949L32.8851 22.212L32.8874 22.1288L32.8888 22.0461L32.8895 21.9631L32.8893 21.8803L32.8883 21.7975L32.8863 21.7151L32.8836 21.6324L32.88 21.55L32.8755 21.4679L32.8702 21.3855L32.8641 21.3034L32.8572 21.2217L32.8494 21.1398L32.8408 21.0584L32.8313 20.9768L32.8211 20.8956L32.81 20.8145L32.7981 20.7335L32.7853 20.6528L32.7718 20.5724L32.7575 20.4921L32.7423 20.4121L32.7263 20.3321L32.7095 20.2526L32.692 20.1733L32.6736 20.0942L32.6544 20.0152L32.6345 19.9369L32.6137 19.8583L32.5922 19.7804L32.5699 19.7026L32.5468 19.6253L32.523 19.5481L32.4983 19.4712L32.473 19.3948L32.4469 19.3187L32.4199 19.2426L32.3924 19.1673L32.364 19.0921L32.3348 19.0174L32.305 18.9428L32.2744 18.8687L32.2431 18.7951L32.2109 18.7217L32.1782 18.6489L32.1448 18.5764L32.1105 18.5042L32.0755 18.4324L32.0401 18.3612L32.0037 18.2902L31.9667 18.2199L31.9291 18.15L31.8907 18.0802L31.8517 18.0112L31.812 17.9425L31.7716 17.8744L31.7305 17.8065L31.689 17.7394L31.6465 17.6724L31.6037 17.6063L31.56 17.5405L31.5158 17.4752L31.4709 17.4103L31.4254 17.346L31.3794 17.2824L31.3326 17.219L31.2854 17.1563L31.2374 17.0941L31.1891 17.0325L31.1399 16.9713L31.0903 16.9108L31.04 16.8507L30.9893 16.7912L30.938 16.7324L30.886 16.674L30.8337 16.6163L30.7806 16.559L30.7273 16.5026L30.6731 16.4464L30.6186 16.3911L30.5634 16.3361L30.5079 16.282L30.452 16.2284L30.3954 16.1753L30.3383 16.1229L30.2807 16.0712L30.2228 16.0201L30.1641 15.9694L30.1055 15.9197L30.046 15.8703L29.9862 15.8217L29.926 15.7737L29.8652 15.7263L29.8042 15.6796L29.7428 15.6337L29.6808 15.5882L29.6183 15.5433L29.5558 15.4995L29.4924 15.4559L29.4292 15.4134L29.3653 15.3713L29.3011 15.3299L29.2364 15.2891L29.1716 15.2492L29.1062 15.2098L29.0407 15.1712L28.9746 15.1332L28.9086 15.096L28.842 15.0595L28.775 15.0235L28.7078 14.9883L28.6405 14.954L28.5727 14.9201L28.5046 14.887L28.4364 14.8547L28.368 14.8231L28.2989 14.792L28.2301 14.7619L28.1608 14.7324L28.0912 14.7035L28.0214 14.6755L27.9517 14.6482L27.8815 14.6216L27.811 14.5956L27.7406 14.5705L27.6698 14.546L27.5988 14.5222L27.5279 14.4992L27.4567 14.477L27.3855 14.4554L27.3137 14.4345L27.2421 14.4145L27.1704 14.3951L27.0985 14.3765L27.0265 14.3586L26.9542 14.3414L26.8821 14.325L26.8099 14.3093L26.7374 14.2943L26.6648 14.28L26.5926 14.2666L26.5198 14.2538L26.4473 14.2418L26.3744 14.2304L26.3019 14.2199L26.2288 14.21L26.1563 14.2009L26.0834 14.1925L26.0106 14.1849L25.9379 14.178L25.865 14.1717L25.7924 14.1663L25.7194 14.1615L25.6468 14.1575L25.5743 14.1542L25.5013 14.1516L25.4289 14.1497L25.3565 14.1487L25.2841 14.1482L25.2346 14.1484L25.2721 17.3277L25.2945 17.3278L25.3361 17.3284L25.3778 17.3294L25.4195 17.3307L25.4613 17.3327L25.5032 17.3349L25.545 17.3376L25.587 17.3408L25.6289 17.3444L25.671 17.3485L25.713 17.353L25.755 17.3578L25.7971 17.3632L25.8392 17.369L25.8813 17.3753L25.9234 17.382L25.9655 17.3892L26.0075 17.3967L26.0496 17.4048L26.0917 17.4132L26.1337 17.4223L26.1757 17.4316L26.2177 17.4415L26.2596 17.4517L26.3016 17.4624L26.3434 17.4736L26.3852 17.4852L26.427 17.4973L26.4687 17.5098L26.5103 17.5228L26.5518 17.5363L26.5933 17.5502L26.6347 17.5645L26.676 17.5792L26.7172 17.5945L26.7583 17.6101L26.7994 17.6262L26.8403 17.6428L26.8811 17.6598L26.9217 17.6772L26.9623 17.6952L27.0028 17.7135L27.0431 17.7323L27.0833 17.7516L27.1233 17.7712L27.1633 17.7913L27.2029 17.812L27.2425 17.8329L27.282 17.8544L27.3212 17.8763L27.3603 17.8986L27.3992 17.9214L27.4379 17.9445L27.4765 17.9682L27.5148 17.9923L27.553 18.0168L27.5909 18.0416L27.6287 18.067L27.6663 18.0928L27.7036 18.119L27.7407 18.1456L27.7776 18.1727L27.8142 18.2001L27.8506 18.228L27.8868 18.2563L27.9228 18.285L27.9584 18.3141L27.9938 18.3436L28.0291 18.3736L28.064 18.4039L28.0986 18.4346L28.133 18.4658L28.1671 18.4974L28.2009 18.5293L28.2344 18.5616L28.2677 18.5944L28.3005 18.6275L28.3332 18.661L28.3656 18.6948L28.3975 18.7291L28.4292 18.7638L28.4606 18.7988L28.4917 18.8342L28.5224 18.87L28.5528 18.9061L28.5829 18.9426L28.6126 18.9795L28.642 19.0167L28.671 19.0543L28.6997 19.0922L28.728 19.1305L28.756 19.1691L28.7835 19.208L28.8108 19.2474L28.8376 19.287L28.864 19.327L28.8901 19.3673L28.9159 19.4079L28.9411 19.4489L28.966 19.4901L28.9905 19.5317L29.0146 19.5736L29.0383 19.6158L29.0616 19.6583L29.0845 19.7011L29.107 19.7442L29.1289 19.7876L29.1506 19.8312L29.1717 19.8751L29.1924 19.9194L29.2128 19.9639L29.2326 20.0087L29.2521 20.0537L29.2711 20.0991L29.2896 20.1446L29.3076 20.1904L29.3252 20.2365L29.3424 20.2828L29.3591 20.3294L29.3753 20.3762L29.3911 20.4232L29.4064 20.4704L29.4211 20.5179L29.4355 20.5656L29.4493 20.6135L29.4627 20.6617L29.4756 20.7099L29.488 20.7584L29.4998 20.8072L29.5112 20.8561L29.5221 20.9051L29.5325 20.9545L29.5424 21.0039L29.5517 21.0534L29.5606 21.1033L29.569 21.1532L29.5769 21.2032L29.5842 21.2535L29.591 21.3039L29.5973 21.3544L29.6031 21.4051L29.6084 21.4559L29.6131 21.5067L29.6173 21.5577L29.621 21.6089L29.6241 21.6602L29.6267 21.7115L29.6287 21.763L29.6303 21.8145L29.6312 21.8661L29.6317 21.9178L29.6315 21.9695L29.6309 22.0214L29.6298 22.0734L29.628 22.1253L29.6257 22.1774L29.6229 22.2294L29.6195 22.2815L29.6156 22.3337L29.6111 22.3859L29.606 22.4381L29.6005 22.4903L29.5943 22.5425L29.5876 22.5948L29.5804 22.6471L29.5726 22.6993L29.5642 22.7515L29.5552 22.8037L29.5457 22.8559L29.5356 22.9081L29.5251 22.9603L29.5138 23.0124L29.5021 23.0644L29.4898 23.1165L29.4769 23.1684L29.4635 23.2204L29.4496 23.2722L29.435 23.324L29.4199 23.3756L29.4042 23.4272L29.388 23.4788L29.3712 23.5301L29.3539 23.5815L29.336 23.6327L29.3174 23.6837L29.2984 23.7348L29.2789 23.7855L29.2587 23.8363L29.238 23.8868L29.2168 23.9373L29.195 23.9876L29.1726 24.0378L29.1497 24.0877L29.1262 24.1375L29.1021 24.1871L29.0776 24.2366L29.0524 24.2858L29.0268 24.3349L29.0005 24.3838L28.9738 24.4324L28.9465 24.4809L28.9186 24.5292L28.8902 24.5773L28.8613 24.625L28.8318 24.6727L28.8019 24.72L28.7713 24.7671L28.7402 24.814L28.7087 24.8606L28.6765 24.907L28.6439 24.953L28.6107 24.9988L28.577 25.0444L28.5428 25.0896L28.5081 25.1346L28.4729 25.1793L28.4371 25.2237L28.4009 25.2677L28.3641 25.3115L28.3269 25.355L28.289 25.3981L28.2508 25.4409L28.212 25.4834L28.1728 25.5255L28.1331 25.5673L28.0928 25.6088L28.0521 25.6499L28.011 25.6905L27.9693 25.731L27.9272 25.771L27.8845 25.8106L27.8415 25.8498L27.798 25.8887L27.754 25.9272L27.7095 25.9652L27.6647 26.0029L27.6193 26.0402L27.5735 26.0771L27.5273 26.1135L27.4806 26.1495L27.4335 26.1851L27.386 26.2203L27.3381 26.255L27.2897 26.2893L27.2409 26.3232L27.1917 26.3566L27.1421 26.3896L27.0921 26.422L27.0417 26.4541L26.9909 26.4857L26.9397 26.5167L26.8881 26.5473L26.8362 26.5775L26.7838 26.6071L26.7311 26.6362L26.678 26.6649L26.6246 26.6931L26.5708 26.7208L26.5166 26.7479L26.4622 26.7746L26.4073 26.8007L26.3521 26.8263L26.2967 26.8514L26.2408 26.8759L26.1847 26.9L26.1282 26.9235L26.0714 26.9464L26.0143 26.9688L25.9569 26.9907L25.8992 27.012L25.8413 27.0328L25.783 27.053L25.7245 27.0726L25.6657 27.0917L25.6066 27.1102L25.5473 27.1281L25.4877 27.1455L25.4279 27.1623L25.3678 27.1785L25.3075 27.1941L25.2469 27.2092L25.1861 27.2236L25.1251 27.2375L25.0639 27.2507L25.0025 27.2634L24.9408 27.2755L24.879 27.2869L24.817 27.2978L24.7547 27.3081L24.6924 27.3177L24.6298 27.3267L24.5672 27.3351L24.5042 27.3429L24.4412 27.3501L24.3781 27.3566L24.3147 27.3625L24.2513 27.3678L24.1877 27.3725L24.124 27.3764L24.0602 27.3799L23.9963 27.3827L23.9323 27.3848L23.8681 27.3862L23.8039 27.3871L23.7397 27.3873L23.6753 27.3869L23.6109 27.3858L23.5464 27.384L23.4819 27.3817L23.4173 27.3786L23.3526 27.3749L23.2879 27.3706L23.2232 27.3657L23.1586 27.36L23.0938 27.3537L23.0291 27.3468L22.9644 27.3391L22.8997 27.3309L22.8349 27.322L22.7702 27.3124L22.7056 27.3022L22.641 27.2913L22.5764 27.2798L22.5119 27.2676L22.4474 27.2548L22.3829 27.2412L22.3186 27.2271L22.2543 27.2122L22.1902 27.1967L22.126 27.1806L22.062 27.1637L21.9981 27.1462L21.9343 27.1281L21.8707 27.1093L21.8071 27.0899L21.7437 27.0697L21.6804 27.049L21.6173 27.0276L21.5544 27.0056L21.4915 26.9828L21.4289 26.9594L21.3665 26.9354L21.3041 26.9108L21.242 26.8854L21.1801 26.8595L21.1185 26.8329L21.057 26.8056L20.9957 26.7777L20.9347 26.7492L20.8738 26.7199L20.8132 26.6901L20.7529 26.6596L20.6928 26.6286L20.633 26.5968L20.5735 26.5645L20.5141 26.5315L20.4552 26.4979L20.3964 26.4636L20.338 26.4287L20.2798 26.3933L20.222 26.3572L20.1645 26.3204L20.1073 26.2831L20.0504 26.2452L19.9939 26.2066L19.9377 26.1674L19.8819 26.1277L19.8263 26.0873L19.7712 26.0463L19.7164 26.0048L19.6621 25.9627L19.6081 25.9199L19.5545 25.8767L19.5012 25.8328L19.4483 25.7883L19.3959 25.7433L19.3439 25.6976L19.2923 25.6515L19.2411 25.6047L19.1904 25.5574L19.14 25.5096L19.0902 25.4612L19.0407 25.4122L18.9918 25.3627L18.9433 25.3127L18.8953 25.2621L18.8477 25.2111L18.8006 25.1593L18.7541 25.1072L18.7079 25.0546L18.6624 25.0014L18.6172 24.9477L18.5726 24.8935L18.5286 24.8388L18.485 24.7836L18.442 24.7279L18.3995 24.6718L18.3575 24.6151L18.3162 24.558L18.2753 24.5004L18.235 24.4423L18.1952 24.3838L18.156 24.3248L18.1174 24.2654L18.0794 24.2055L18.0419 24.1452L18.0051 24.0845L17.9688 24.0233L17.9331 23.9617L17.8981 23.8996L17.8636 23.8372L17.8297 23.7744L17.7965 23.7112L17.7638 23.6475L17.7318 23.5835L17.7004 23.5192L17.6697 23.4543L17.6396 23.3892L17.6102 23.3237L17.5814 23.2579L17.5532 23.1916L17.5257 23.1251L17.4988 23.0581L17.4727 22.9909L17.4472 22.9233L17.4224 22.8554L17.3983 22.7872L17.3748 22.7188L17.3519 22.65L17.3299 22.5808L17.3085 22.5114L17.2878 22.4418L17.2677 22.3718L17.2484 22.3016L17.2299 22.2311L17.2119 22.1604L17.1948 22.0894L17.1784 22.0182L17.1626 21.9467L17.1476 21.8751L17.1333 21.8031L17.1197 21.7311L17.1069 21.6587L17.0948 21.5862L17.0835 21.5135L17.0728 21.4406L17.0629 21.3676L17.0539 21.2943L17.0455 21.221L17.0379 21.1474L17.031 21.0737L17.0249 20.9999L17.0195 20.9259L17.0149 20.8518L17.011 20.7776L17.0079 20.7034L17.0056 20.6289L17.0041 20.5544L17.0033 20.4799L17.0032 20.4052L17.004 20.3304L17.0056 20.2556L17.0078 20.1807L17.0109 20.1058L17.0148 20.0308L17.0194 19.9559L17.0248 19.8809L17.031 19.8058L17.038 19.7308L17.0457 19.6558L17.0542 19.5807L17.0635 19.5057L17.0736 19.4308L17.0845 19.3558L17.0962 19.2809L17.1087 19.206L17.1218 19.1311L17.1358 19.0564L17.1507 18.9817L17.1663 18.9071L17.1827 18.8325L17.1998 18.7581L17.2177 18.6838L17.2364 18.6095L17.256 18.5354L17.2763 18.4615L17.2973 18.3876L17.3191 18.3139L17.3418 18.2404L17.3652 18.1669L17.3894 18.0937L17.4144 18.0207L17.4401 17.9477L17.4666 17.8751L17.4939 17.8025L17.522 17.7303L17.5508 17.6582L17.5805 17.5863L17.6108 17.5147L17.642 17.4433L17.6739 17.3721L17.7065 17.3012L17.74 17.2306L17.7742 17.1603L17.8091 17.0901L17.8448 17.0203L17.8813 16.9508L17.9184 16.8816L17.9565 16.8127L17.9951 16.7441L18.0346 16.6758L18.0747 16.6079L18.1157 16.5403L18.1573 16.473L18.1997 16.4062L18.2428 16.3396L18.2866 16.2734L18.3312 16.2076L18.3765 16.1422L18.4225 16.0772L18.4692 16.0126L18.5166 15.9483L18.5646 15.8845L18.6135 15.8212L18.663 15.7582L18.7132 15.6957L18.7641 15.6335L18.8156 15.572L18.8679 15.5108L18.9208 15.45L18.9744 15.3898L19.0287 15.33L19.0837 15.2708L19.1393 15.2121L19.1956 15.1538L19.2525 15.096L19.31 15.0388L19.3682 14.982L19.427 14.9258L19.4865 14.8702L19.5466 14.815L19.6072 14.7604L19.6685 14.7064L19.7305 14.653L19.793 14.6L19.8562 14.5477L19.9199 14.496L19.9842 14.4448L20.0491 14.3943L20.1146 14.3444L20.1806 14.295L20.2472 14.2463L20.3144 14.1982L20.3821 14.1507L20.4504 14.1038L20.5193 14.0575L20.5885 14.012L20.6584 13.9671L20.7289 13.9228L20.7998 13.8792L20.8713 13.8362L20.9431 13.794L21.0156 13.7524L21.0885 13.7114L21.1619 13.6712L21.2358 13.6317L21.3102 13.5929L21.385 13.5547L21.4602 13.5173L21.536 13.4806L21.6122 13.4447L21.6888 13.4094L21.7658 13.3748L21.8432 13.3411L21.9211 13.308L21.9994 13.2756L22.078 13.2441L22.1571 13.2133L22.2365 13.1833L22.3163 13.154L22.3965 13.1255L22.4771 13.0977L22.558 13.0708L22.6393 13.0446L22.7208 13.0191L22.8028 12.9945L22.885 12.9707L22.9676 12.9477L23.0504 12.9255L23.1336 12.904L23.217 12.8834L23.3008 12.8636L23.3848 12.8447L23.469 12.8265L23.5536 12.8091L23.6383 12.7926L23.6809 12.7847ZM24.7227 18.8986L23.7558 19.1305L23.699 14.3225L23.6534 14.3328L23.5848 14.3491L23.5163 14.366L23.4482 14.3835L23.3803 14.4017L23.3128 14.4206L23.2452 14.4402L23.1784 14.4602L23.1113 14.4811L23.0452 14.5024L22.9788 14.5246L22.9129 14.5473L22.8473 14.5706L22.7819 14.5946L22.7171 14.6191L22.6525 14.6443L22.5881 14.6701L22.5242 14.6964L22.4604 14.7236L22.3974 14.751L22.3344 14.7793L22.2719 14.808L22.2096 14.8375L22.1479 14.8674L22.0863 14.898L22.0254 14.929L21.9647 14.9607L21.9045 14.9929L21.8447 15.0257L21.7852 15.0591L21.7262 15.093L21.6678 15.1273L21.6093 15.1625L21.5516 15.1979L21.4944 15.234L21.4375 15.2705L21.381 15.3076L21.325 15.3453L21.2695 15.3834L21.2144 15.422L21.1598 15.4611L21.1056 15.5007L21.0519 15.5409L20.9987 15.5815L20.9459 15.6226L20.8937 15.664L20.8421 15.706L20.7907 15.7486L20.7399 15.7916L20.6897 15.8349L20.64 15.8788L20.5907 15.923L20.542 15.9677L20.4938 16.0129L20.4461 16.0585L20.399 16.1044L20.3522 16.1508L20.3062 16.1976L20.2606 16.2448L20.2157 16.2923L20.171 16.3405L20.1272 16.3887L20.0838 16.4375L20.0409 16.4867L19.9987 16.536L19.957 16.586L19.9159 16.636L19.8752 16.6867L19.8353 16.7375L19.7958 16.7887L19.757 16.8404L19.7187 16.8921L19.681 16.9443L19.6439 16.9967L19.6073 17.0496L19.5713 17.1027L19.536 17.1561L19.5013 17.2097L19.4671 17.2636L19.4335 17.3179L19.4006 17.3723L19.3681 17.4272L19.3364 17.482L19.3052 17.5374L19.2746 17.5929L19.2447 17.6485L19.2154 17.7044L19.1867 17.7606L19.1585 17.8171L19.1311 17.8735L19.1041 17.9305L19.0779 17.9874L19.0523 18.0446L19.0272 18.1019L19.0028 18.1595L18.9791 18.2171L18.9559 18.2751L18.9334 18.3331L18.9114 18.3913L18.8902 18.4495L18.8696 18.508L18.8495 18.5666L18.8302 18.6253L18.8114 18.6841L18.7932 18.7431L18.7757 18.8021L18.7589 18.8612L18.7427 18.9204L18.727 18.9798L18.712 19.0392L18.6977 19.0986L18.6839 19.1582L18.6708 19.2178L18.6584 19.2775L18.6466 19.3371L18.6354 19.3968L18.6248 19.4567L18.6149 19.5164L18.6056 19.5762L18.5969 19.6362L18.5888 19.6959L18.5814 19.7558L18.5746 19.8155L18.5684 19.8754L18.5629 19.9353L18.5579 19.9951L18.5537 20.0548L18.55 20.1146L18.5469 20.1743L18.5444 20.2339L18.5426 20.2934L18.5414 20.353L18.5407 20.4125L18.5408 20.4719L18.5414 20.5311L18.5427 20.5904L18.5445 20.6495L18.5469 20.7086L18.55 20.7675L18.5537 20.8263L18.5579 20.885L18.5628 20.9436L18.5683 21.002L18.5743 21.0605L18.5809 21.1185L18.5881 21.1767L18.5959 21.2345L18.6044 21.2923L18.6134 21.3498L18.6229 21.4073L18.6331 21.4646L18.6438 21.5216L18.6552 21.5785L18.667 21.6351L18.6795 21.6917L18.6925 21.748L18.7061 21.8041L18.7202 21.8599L18.7349 21.9157L18.7501 21.9711L18.7659 22.0264L18.7823 22.0813L18.7991 22.1361L18.8166 22.1906L18.8345 22.2447L18.8531 22.2989L18.8721 22.3526L18.8916 22.406L18.9117 22.4593L18.9323 22.5123L18.9535 22.5649L18.9751 22.6173L18.9972 22.6693L19.0199 22.7212L19.0431 22.7727L19.0667 22.8239L19.0909 22.8748L19.1155 22.9253L19.1407 22.9758L19.1662 23.0256L19.1923 23.0752L19.2189 23.1246L19.246 23.1735L19.2735 23.2222L19.3014 23.2705L19.3299 23.3183L19.3588 23.366L19.3881 23.4132L19.4179 23.4601L19.4482 23.5066L19.4788 23.5528L19.5099 23.5987L19.5414 23.6439L19.5733 23.689L19.6057 23.7337L19.6384 23.7779L19.6717 23.8218L19.7053 23.8653L19.7393 23.9083L19.7737 23.951L19.8085 23.9934L19.8435 24.0351L19.8792 24.0767L19.9151 24.1178L19.9513 24.1583L19.9882 24.1986L20.0251 24.2383L20.0625 24.2778L20.1002 24.3167L20.1382 24.3551L20.1767 24.3932L20.2155 24.4308L20.2546 24.4681L20.294 24.5048L20.3338 24.5411L20.3739 24.577L20.4142 24.6123L20.4549 24.6473L20.4959 24.6818L20.5371 24.7158L20.5787 24.7494L20.6207 24.7825L20.6627 24.8151L20.7052 24.8473L20.7479 24.879L20.7908 24.9103L20.834 24.941L20.8775 24.9713L20.9212 25.0011L20.9651 25.0304L21.0093 25.0592L21.0536 25.0876L21.0984 25.1156L21.1432 25.1428L21.1883 25.1698L21.2337 25.1962L21.279 25.2221L21.3247 25.2475L21.3707 25.2725L21.4168 25.2969L21.463 25.3209L21.5094 25.3443L21.5561 25.3673L21.6028 25.3897L21.6498 25.4116L21.6969 25.4331L21.744 25.454L21.7915 25.4745L21.8391 25.4944L21.8866 25.5139L21.9345 25.5328L21.9824 25.5512L22.0305 25.5691L22.0785 25.5865L22.1269 25.6035L22.1751 25.6198L22.2235 25.6357L22.2721 25.6511L22.3208 25.666L22.3694 25.6804L22.4182 25.6943L22.4671 25.7076L22.516 25.7204L22.5649 25.7327L22.6139 25.7446L22.6629 25.7559L22.7119 25.7667L22.7611 25.777L22.8103 25.7868L22.8594 25.7961L22.9086 25.8049L22.9578 25.8132L23.0071 25.821L23.0563 25.8283L23.1054 25.8351L23.1546 25.8413L23.2038 25.8471L23.253 25.8524L23.3022 25.8571L23.3513 25.8614L23.4004 25.8652L23.4494 25.8685L23.4985 25.8713L23.5474 25.8735L23.5962 25.8754L23.6452 25.8767L23.6939 25.8775L23.7425 25.8778L23.7912 25.8777L23.8397 25.8771L23.8882 25.8759L23.9366 25.8743L23.9848 25.8723L24.0329 25.8697L24.0812 25.8666L24.129 25.8631L24.1769 25.8591L24.2245 25.8547L24.2722 25.8498L24.3197 25.8443L24.3669 25.8385L24.4142 25.8322L24.4612 25.8254L24.508 25.8181L24.5549 25.8105L24.6015 25.8023L24.6479 25.7937L24.6942 25.7846L24.7403 25.7751L24.7861 25.7652L24.8317 25.7548L24.8774 25.7439L24.9228 25.7327L24.9679 25.721L25.0129 25.7089L25.0576 25.6964L25.1023 25.6833L25.1466 25.6699L25.1905 25.6561L25.2347 25.6418L25.2783 25.6271L25.3217 25.6121L25.3649 25.5967L25.4079 25.5807L25.4508 25.5644L25.4933 25.5477L25.5355 25.5306L25.5775 25.5132L25.6193 25.4953L25.6609 25.477L25.702 25.4584L25.7431 25.4393L25.7838 25.42L25.8241 25.4002L25.8644 25.3801L25.9042 25.3596L25.9439 25.3387L25.9832 25.3174L26.0222 25.2959L26.0609 25.274L26.0994 25.2516L26.1376 25.229L26.1753 25.206L26.2128 25.1827L26.25 25.159L26.287 25.1351L26.3236 25.1108L26.3599 25.0862L26.3958 25.0612L26.4315 25.0359L26.4667 25.0104L26.5017 24.9844L26.5364 24.9583L26.5707 24.9317L26.6046 24.9049L26.6384 24.8778L26.6716 24.8505L26.7046 24.8229L26.7371 24.795L26.7693 24.7668L26.8013 24.7383L26.8328 24.7095L26.864 24.6805L26.8947 24.6513L26.9253 24.6217L26.9554 24.5919L26.9852 24.562L27.0145 24.5317L27.0435 24.5012L27.0721 24.4705L27.1004 24.4394L27.1282 24.4084L27.1558 24.3769L27.1829 24.3452L27.2096 24.3135L27.2361 24.2813L27.2619 24.2491L27.2876 24.2166L27.3128 24.184L27.3376 24.1512L27.3621 24.1181L27.3861 24.085L27.4097 24.0515L27.433 24.0179L27.4559 23.9843L27.4783 23.9503L27.5005 23.9162L27.5221 23.882L27.5434 23.8477L27.5642 23.8132L27.5847 23.7785L27.6049 23.7437L27.6245 23.7087L27.6438 23.6737L27.6627 23.6384L27.6811 23.6032L27.6991 23.5678L27.7168 23.5322L27.7341 23.4966L27.751 23.4607L27.7674 23.4249L27.7835 23.389L27.7991 23.353L27.8143 23.3168L27.8291 23.2807L27.8436 23.2442L27.8575 23.2081L27.8712 23.1714L27.8843 23.1353L27.8971 23.0985L27.9095 23.0618L27.9214 23.0253L27.933 22.9886L27.9442 22.9519L27.955 22.9149L27.9652 22.8783L27.9753 22.8412L27.9848 22.8047L27.9939 22.7676L28.0027 22.7305L28.011 22.6938L28.0188 22.657L28.0264 22.6198L28.0335 22.583L28.0402 22.5459L28.0465 22.5092L28.0525 22.4723L28.058 22.4353L28.0631 22.3983L28.0678 22.3615L28.0722 22.3247L28.0761 22.2881L28.0797 22.2511L28.0829 22.2145L28.0856 22.1778L28.088 22.1412L28.09 22.1046L28.0916 22.0681L28.0928 22.0319L28.0936 21.9953L28.0941 21.9588L28.0942 21.9227L28.0938 21.8866L28.0932 21.8505L28.0921 21.8146L28.0907 21.7785L28.0888 21.743L28.0866 21.7068L28.0841 21.6715L28.0812 21.6361L28.0779 21.6004L28.0742 21.5651L28.0703 21.5301L28.0658 21.4947L28.0611 21.46L28.056 21.425L28.0506 21.3906L28.0448 21.3558L28.0386 21.3213L28.0322 21.2871L28.0254 21.253L28.0182 21.2188L28.0106 21.185L28.0028 21.1513L27.9946 21.1178L27.9861 21.0845L27.9772 21.051L27.9681 21.0181L27.9585 20.985L27.9487 20.9524L27.9386 20.9198L27.9281 20.8874L27.9173 20.8552L27.9061 20.823L27.8948 20.7913L27.883 20.7598L27.8709 20.7281L27.8586 20.6969L27.8459 20.6656L27.8331 20.6351L27.8198 20.6042L27.8064 20.5737L27.7925 20.5436L27.7784 20.5135L27.7641 20.4836L27.7494 20.454L27.7345 20.4245L27.7193 20.3954L27.7038 20.3664L27.6881 20.3377L27.672 20.3092L27.6557 20.2809L27.6392 20.2528L27.6225 20.225L27.6054 20.1973L27.5881 20.1701L27.5705 20.143L27.5528 20.1161L27.5347 20.0895L27.5165 20.0632L27.498 20.037L27.4793 20.0111L27.4603 19.9855L27.4411 19.9602L27.4218 19.9351L27.4021 19.9102L27.3823 19.8857L27.3622 19.8613L27.342 19.8372L27.3216 19.8134L27.301 19.7899L27.2801 19.7667L27.2591 19.7437L27.2378 19.7209L27.2164 19.6985L27.1948 19.6763L27.173 19.6543L27.1511 19.6328L27.129 19.6115L27.1067 19.5904L27.0841 19.5695L27.0616 19.5491L27.0388 19.5288L27.0159 19.5089L26.9927 19.4892L26.9695 19.4699L26.9461 19.4508L26.9226 19.432L26.8989 19.4135L26.8751 19.3952L26.8512 19.3774L26.8271 19.3597L26.8029 19.3423L26.7786 19.3253L26.7542 19.3085L26.7297 19.2921L26.7051 19.2759L26.6802 19.26L26.6555 19.2444L26.6304 19.2291L26.6054 19.2141L26.5803 19.1994L26.5551 19.185L26.5296 19.1709L26.5043 19.1571L26.4789 19.1435L26.4533 19.1303L26.4278 19.1174L26.402 19.1047L26.3763 19.0924L26.3505 19.0804L26.3246 19.0687L26.2987 19.0572L26.2726 19.046L26.2468 19.0352L26.2206 19.0247L26.1944 19.0144L26.1683 19.0045L26.1422 18.9948L26.116 18.9855L26.0897 18.9764L26.0635 18.9675L26.0373 18.9591L26.011 18.9508L25.9846 18.9429L25.9584 18.9353L25.9319 18.928L25.9058 18.921L25.8794 18.9143L25.8531 18.9078L25.8267 18.9017L25.8005 18.8958L25.7741 18.8902L25.7479 18.8849L25.7217 18.8799L25.6955 18.8751L25.6692 18.8707L25.6432 18.8665L25.6169 18.8627L25.5909 18.8591L25.5648 18.8557L25.5388 18.8527L25.5129 18.8499L25.4869 18.8474L25.4611 18.8452L25.4352 18.8432L25.4095 18.8415L25.3837 18.8401L25.3581 18.839L25.3326 18.8382L25.3071 18.8375L25.2816 18.8372L25.2562 18.8371L25.231 18.8373L25.2057 18.8377L25.1806 18.8384L25.1555 18.8394L25.1307 18.8406L25.1057 18.8421L25.0811 18.8438L25.0564 18.8457L25.0318 18.848L25.0074 18.8505L24.9829 18.8532L24.9587 18.8561L24.9346 18.8593L24.9106 18.8628L24.8866 18.8665L24.8629 18.8703L24.8391 18.8745L24.8157 18.8788L24.7921 18.8835L24.7689 18.8883L24.7457 18.8933L24.7227 18.8986Z" fill="#E6C89B"/>
</svg>
