<svg width="24" height="24" viewBox="0 0 24 24" fill="none" xmlns="http://www.w3.org/2000/svg">
<path d="M6.99805 19C8.10262 19 8.99805 18.1046 8.99805 17C8.99805 15.8954 8.10262 15 6.99805 15C5.89348 15 4.99805 15.8954 4.99805 17C4.99805 18.1046 5.89348 19 6.99805 19Z" stroke="#333333" stroke-miterlimit="1.5" stroke-linecap="round" stroke-linejoin="round"/>
<path d="M16.9961 19C18.1007 19 18.9961 18.1046 18.9961 17C18.9961 15.8954 18.1007 15 16.9961 15C15.8915 15 14.9961 15.8954 14.9961 17C14.9961 18.1046 15.8915 19 16.9961 19Z" stroke="#333333" stroke-miterlimit="1.5" stroke-linecap="round" stroke-linejoin="round"/>
<path d="M13.998 17V6.6C13.998 6.26863 13.7294 6 13.398 6H2.59805C2.26668 6 1.99805 6.26863 1.99805 6.6V16.4C1.99805 16.7314 2.26668 17 2.59805 17H4.64805" stroke="#333333" stroke-linecap="round"/>
<path d="M13.9974 17.0001H9.04736" stroke="#333333" stroke-linecap="round"/>
<path d="M13.998 9H19.6081C19.8452 9 20.0601 9.13964 20.1564 9.35632L21.9463 13.3836C21.9804 13.4604 21.998 13.5434 21.998 13.6273V16.4C21.998 16.7314 21.7294 17 21.398 17H19.498" stroke="#333333" stroke-linecap="round"/>
<path d="M13.998 17.0001H14.998" stroke="#333333" stroke-linecap="round"/>
</svg>
