<svg width="84" height="24" viewBox="0 0 84 24" fill="none" xmlns="http://www.w3.org/2000/svg">
<path d="M64.2031 23.6794V0.293911H68.2591V9.9489H79.9431V0.293911H83.9991V23.6794H79.9431V13.2966H68.2591V23.6794H64.2031Z" fill="#512731"/>
<path d="M50.1768 24C48.975 24 47.8233 23.8598 46.7216 23.5795C45.62 23.2884 44.613 22.8625 43.7005 22.3019C42.7992 21.7305 42.0536 21.0243 41.4638 20.1833C40.8741 19.3315 40.5124 18.3396 40.3789 17.2075H44.5851C44.7632 17.9946 45.1137 18.6577 45.6367 19.1968C46.1708 19.7358 46.844 20.1456 47.6564 20.4259C48.4687 20.7062 49.3756 20.8464 50.3771 20.8464C51.2673 20.8464 52.0963 20.717 52.8641 20.4582C53.6319 20.1995 54.255 19.8167 54.7335 19.31C55.212 18.7925 55.4512 18.1563 55.4512 17.4016C55.4512 16.5499 55.1397 15.8868 54.5165 15.4124C53.9045 14.9272 53.0254 14.5445 51.8793 14.2642L47.1556 13.1806C45.9316 12.9111 44.8633 12.5175 43.9509 12C43.0495 11.4825 42.3485 10.8032 41.8477 9.96226C41.347 9.11051 41.0966 8.07008 41.0966 6.84097C41.0966 5.43935 41.4917 4.22642 42.2817 3.20216C43.0829 2.1779 44.1679 1.39084 45.5365 0.840971C46.9052 0.280324 48.4464 0 50.1601 0C52.1185 0 53.771 0.318059 55.1174 0.954178C56.4639 1.57951 57.4876 2.42049 58.1886 3.47709C58.8897 4.53369 59.2458 5.69272 59.2569 6.95418H55.1508C55.0618 6.01617 54.778 5.27763 54.2995 4.73855C53.821 4.18868 53.2146 3.78976 52.4802 3.54178C51.7458 3.2938 50.9334 3.16981 50.0432 3.16981C48.4631 3.16981 47.2891 3.49865 46.5213 4.15634C45.7535 4.81402 45.3696 5.58491 45.3696 6.469C45.3696 7.29919 45.6534 7.95687 46.2209 8.44205C46.7884 8.92722 47.6564 9.30458 48.8248 9.57412L53.3147 10.593C54.817 10.8949 56.0243 11.3585 56.9368 11.9838C57.8492 12.6092 58.5113 13.3531 58.9231 14.2156C59.3459 15.0674 59.5573 16.0108 59.5573 17.0458C59.5573 18.4043 59.1567 19.6065 58.3555 20.6523C57.5655 21.6981 56.4694 22.5175 55.0673 23.1105C53.6653 23.7035 52.0351 24 50.1768 24Z" fill="#512731"/>
<path d="M16.9199 23.6944L25.5828 0.308977H29.9893L38.6521 23.6944H34.3435L31.8898 17.8238H19.0946L16.9199 23.6944ZM20.3887 14.3305H30.83L25.5828 0.308977L20.3887 14.3305Z" fill="#512731"/>
<path d="M9.79624 23.6944L0 0.308977H4.99434L12.2667 17.2412L9.79624 23.6944L18.7486 0.308977H23.6836L14.8499 23.6944H9.79624Z" fill="#512731"/>
</svg>
