<svg width="112" height="32" viewBox="0 0 112 32" fill="none" xmlns="http://www.w3.org/2000/svg">
<path d="M85.6055 31.5727V0.39209H91.0135V13.2654H106.592V0.39209H112V31.5727H106.592V17.729H91.0135V31.5727H85.6055Z" fill="white"/>
<path d="M66.9017 32C65.2993 32 63.7637 31.8131 62.2949 31.4394C60.826 31.0512 59.4833 30.4834 58.2667 29.7358C57.0649 28.9739 56.0708 28.0323 55.2845 26.911C54.4981 25.7754 54.0159 24.4528 53.8379 22.9434H59.4462C59.6836 23.9928 60.1509 24.8769 60.8483 25.5957C61.5604 26.3145 62.4581 26.8607 63.5412 27.2345C64.6242 27.6083 65.8334 27.7951 67.1688 27.7951C68.3557 27.7951 69.461 27.6226 70.4848 27.2776C71.5085 26.9326 72.3394 26.4223 72.9774 25.7466C73.6153 25.0566 73.9343 24.2084 73.9343 23.2022C73.9343 22.0665 73.5189 21.1824 72.688 20.5499C71.872 19.903 70.6999 19.3926 69.1717 19.0189L62.8735 17.5741C61.2414 17.2147 59.8171 16.69 58.6005 16C57.3987 15.31 56.464 14.4043 55.7963 13.283C55.1287 12.1474 54.7949 10.7601 54.7949 9.12129C54.7949 7.25247 55.3216 5.63522 56.375 4.26954C57.4432 2.90386 58.8898 1.85445 60.7147 1.12129C62.5397 0.373765 64.5946 0 66.8794 0C69.4907 0 71.694 0.424079 73.4892 1.27224C75.2845 2.10602 76.6495 3.22731 77.5842 4.63612C78.5189 6.04492 78.9937 7.5903 79.0085 9.27224H73.5337C73.415 8.02156 73.0367 7.03684 72.3987 6.31806C71.7607 5.58491 70.9521 5.05301 69.9729 4.72237C68.9937 4.39174 67.9106 4.22642 66.7237 4.22642C64.6168 4.22642 63.0515 4.66487 62.0278 5.54178C61.0041 6.41869 60.4922 7.44654 60.4922 8.62534C60.4922 9.73226 60.8705 10.6092 61.6272 11.2561C62.3839 11.903 63.5412 12.4061 65.099 12.7655L71.0857 14.124C73.0886 14.5265 74.6984 15.1447 75.915 15.9784C77.1317 16.8122 78.0145 17.8041 78.5634 18.9542C79.1272 20.0898 79.4091 21.3477 79.4091 22.7278C79.4091 24.5391 78.875 26.142 77.8067 27.5364C76.7533 28.9308 75.2919 30.0234 73.4225 30.814C71.553 31.6047 69.3794 32 66.9017 32Z" fill="white"/>
<path d="M22.5605 31.5927L34.111 0.412109H39.9864L51.5368 31.5927H45.792L42.5204 23.7652H25.4601L22.5605 31.5927ZM27.1855 19.1075H41.1073L34.111 0.412109L27.1855 19.1075Z" fill="white"/>
<path d="M13.0617 31.5927L0 0.412109H6.65912L16.3555 22.9883L13.0617 31.5927L24.9981 0.412109H31.5781L19.7999 31.5927H13.0617Z" fill="white"/>
</svg>
