<svg width="141" height="40" viewBox="0 0 141 40" fill="none" xmlns="http://www.w3.org/2000/svg">
<g opacity="0.5">
<path d="M50.8746 24.4908H55.0394V27.0153H47.6952V13.5896H50.8746V24.4908Z" fill="black"/>
<path d="M57.9689 15.2346C57.4111 15.2346 56.9525 15.0689 56.593 14.7374C56.246 14.3931 56.0724 13.9724 56.0724 13.4751C56.0724 12.9651 56.246 12.5444 56.593 12.2129C56.9525 11.8686 57.4111 11.6965 57.9689 11.6965C58.5143 11.6965 58.9605 11.8686 59.3076 12.2129C59.6671 12.5444 59.8468 12.9651 59.8468 13.4751C59.8468 13.9724 59.6671 14.3931 59.3076 14.7374C58.9605 15.0689 58.5143 15.2346 57.9689 15.2346ZM59.5493 16.3439V27.0156H56.3699V16.3439H59.5493Z" fill="black"/>
<path d="M65.6091 16.1902C66.3404 16.1902 66.9788 16.3432 67.5242 16.6492C68.082 16.9552 68.5096 17.3568 68.8071 17.854V16.3432H71.9864V26.9958C71.9864 27.9775 71.7943 28.8637 71.4101 29.6542C71.0382 30.4574 70.4618 31.0949 69.6809 31.5667C68.9124 32.0384 67.9518 32.2743 66.7991 32.2743C65.262 32.2743 64.0163 31.8982 63.0619 31.1459C62.1075 30.4064 61.5621 29.3992 61.4257 28.1242H64.5679C64.6671 28.5322 64.9026 28.8509 65.2744 29.0804C65.6463 29.3227 66.1049 29.4438 66.6503 29.4438C67.3073 29.4438 67.8279 29.2462 68.2121 28.8509C68.6088 28.4684 68.8071 27.85 68.8071 26.9958V25.4849C68.4972 25.9822 68.0696 26.3902 67.5242 26.7089C66.9788 27.0149 66.3404 27.1679 65.6091 27.1679C64.7538 27.1679 63.9791 26.9448 63.285 26.4985C62.5909 26.0395 62.0393 25.3957 61.6302 24.5669C61.2336 23.7254 61.0353 22.7564 61.0353 21.6599C61.0353 20.5634 61.2336 19.6008 61.6302 18.772C62.0393 17.9433 62.5909 17.3058 63.285 16.8595C63.9791 16.4133 64.7538 16.1902 65.6091 16.1902ZM68.8071 21.679C68.8071 20.863 68.584 20.2192 68.1377 19.7474C67.7039 19.2757 67.1709 19.0398 66.5387 19.0398C65.9066 19.0398 65.3674 19.2757 64.9212 19.7474C64.4873 20.2064 64.2704 20.8439 64.2704 21.6599C64.2704 22.4759 64.4873 23.1262 64.9212 23.6107C65.3674 24.0824 65.9066 24.3183 66.5387 24.3183C67.1709 24.3183 67.7039 24.0824 68.1377 23.6107C68.584 23.1389 68.8071 22.495 68.8071 21.679Z" fill="black"/>
<path d="M80.4781 16.229C81.668 16.229 82.6225 16.637 83.3414 17.453C84.0603 18.2563 84.4198 19.3655 84.4198 20.7808V27.0155H81.259V21.2206C81.259 20.5066 81.0793 19.952 80.7198 19.5568C80.3603 19.1615 79.8769 18.9639 79.2696 18.9639C78.6622 18.9639 78.1788 19.1615 77.8193 19.5568C77.4599 19.952 77.2801 20.5066 77.2801 21.2206V27.0155H74.1007V12.863H77.2801V17.7781C77.6024 17.3064 78.0424 16.9303 78.6002 16.6498C79.158 16.3693 79.784 16.229 80.4781 16.229Z" fill="black"/>
<path d="M92.2254 24.2423V27.0154H90.6079C89.4551 27.0154 88.5565 26.7285 87.9119 26.1548C87.2674 25.5683 86.9451 24.6184 86.9451 23.3052V19.0594H85.6808V16.3437H86.9451V13.7427H90.1245V16.3437H92.2069V19.0594H90.1245V23.3434C90.1245 23.6622 90.1988 23.8917 90.3476 24.0319C90.4963 24.1722 90.7442 24.2423 91.0913 24.2423H92.2254Z" fill="black"/>
<path d="M96.99 17.8546C97.2874 17.3574 97.715 16.9558 98.2729 16.6498C98.8306 16.3438 99.469 16.1908 100.188 16.1908C101.043 16.1908 101.818 16.4139 102.512 16.8601C103.206 17.3064 103.752 17.9439 104.148 18.7726C104.557 19.6014 104.762 20.564 104.762 21.6605C104.762 22.757 104.557 23.726 104.148 24.5675C103.752 25.3963 103.206 26.0401 102.512 26.4991C101.818 26.9454 101.043 27.1685 100.188 27.1685C99.4566 27.1685 98.8182 27.0219 98.2729 26.7286C97.7274 26.4226 97.2998 26.021 96.99 25.5238V27.0155H93.8105V12.863H96.99V17.8546ZM101.527 21.6605C101.527 20.8445 101.303 20.207 100.857 19.748C100.423 19.2763 99.8841 19.0404 99.2396 19.0404C98.6074 19.0404 98.0682 19.2763 97.622 19.748C97.1882 20.2198 96.9714 20.8636 96.9714 21.6796C96.9714 22.4956 97.1882 23.1395 97.622 23.6113C98.0682 24.083 98.6074 24.3189 99.2396 24.3189C99.8717 24.3189 100.411 24.083 100.857 23.6113C101.303 23.1268 101.527 22.4765 101.527 21.6605Z" fill="black"/>
<path d="M110.966 27.1679C109.95 27.1679 109.033 26.9448 108.215 26.4985C107.409 26.0523 106.771 25.4148 106.3 24.586C105.841 23.7573 105.612 22.7883 105.612 21.679C105.612 20.5825 105.847 19.6199 106.318 18.7912C106.789 17.9497 107.434 17.3058 108.252 16.8595C109.07 16.4133 109.987 16.1902 111.004 16.1902C112.02 16.1902 112.937 16.4133 113.755 16.8595C114.573 17.3058 115.218 17.9497 115.689 18.7912C116.16 19.6199 116.395 20.5825 116.395 21.679C116.395 22.7755 116.154 23.7445 115.67 24.586C115.199 25.4148 114.549 26.0523 113.718 26.4985C112.9 26.9448 111.983 27.1679 110.966 27.1679ZM110.966 24.3374C111.574 24.3374 112.088 24.1079 112.51 23.6489C112.943 23.1899 113.16 22.5333 113.16 21.679C113.16 20.8248 112.95 20.1682 112.528 19.7092C112.119 19.2502 111.611 19.0207 111.004 19.0207C110.384 19.0207 109.869 19.2502 109.46 19.7092C109.051 20.1554 108.847 20.812 108.847 21.679C108.847 22.5333 109.045 23.1899 109.442 23.6489C109.851 24.1079 110.359 24.3374 110.966 24.3374Z" fill="black"/>
<path d="M124.032 27.0154L122.042 24.051L120.369 27.0154H116.929L120.351 21.5648L116.836 16.3438H120.406L122.396 19.2889L124.069 16.3438H127.509L124.032 21.7178L127.602 27.0154H124.032Z" fill="black"/>
</g>
<path fill-rule="evenodd" clip-rule="evenodd" d="M26.411 5.43873C26.0632 5.36515 25.7045 5.36515 25.3567 5.43873C24.9547 5.52377 24.5954 5.73079 24.3097 5.89537L24.2318 5.94012L14.5502 11.4728C14.5234 11.4881 14.4958 11.5037 14.4675 11.5198C14.1651 11.6911 13.7849 11.9065 13.4929 12.2324C13.2405 12.5142 13.0495 12.8482 12.9326 13.212C12.7974 13.6328 12.799 14.0793 12.8003 14.4345C12.8004 14.4676 12.8005 14.5 12.8005 14.5315V25.4554C12.8005 25.4869 12.8004 25.5193 12.8003 25.5525C12.799 25.9076 12.7974 26.3541 12.9326 26.7749C13.0495 27.1388 13.2405 27.4727 13.4929 27.7545C13.7849 28.0804 14.1652 28.2959 14.4675 28.4672C14.4958 28.4832 14.5234 28.4988 14.5502 28.5141L24.2318 34.0468L24.3097 34.0915C24.5954 34.2561 24.9547 34.4631 25.3567 34.5482C25.7045 34.6217 26.0632 34.6217 26.411 34.5482C26.813 34.4631 27.1723 34.2561 27.458 34.0915L27.5358 34.0468L37.2175 28.5141C37.2293 28.5074 37.2413 28.5005 37.2535 28.4936C37.2688 28.4849 37.2843 28.4761 37.3001 28.4672C37.6025 28.2959 37.9827 28.0804 38.2747 27.7545C38.5272 27.4727 38.7182 27.1388 38.8351 26.7749C38.9703 26.3541 38.9687 25.9076 38.9674 25.5525C38.9673 25.5193 38.9672 25.4869 38.9672 25.4554V14.5315C38.9672 14.5 38.9673 14.4677 38.9674 14.4345C38.9687 14.0793 38.9703 13.6328 38.8351 13.212C38.7182 12.8482 38.5272 12.5142 38.2747 12.2324C37.9827 11.9065 37.6025 11.6911 37.3001 11.5198L37.299 11.5191C37.2712 11.5033 37.2439 11.4879 37.2175 11.4728L27.5358 5.94012L27.458 5.89537C27.1723 5.73079 26.813 5.52377 26.411 5.43873ZM25.5026 8.29297C25.7009 8.17967 25.8021 8.12242 25.8776 8.08496L25.8838 8.08188L25.8901 8.08496C25.9656 8.12242 26.0668 8.17967 26.2651 8.29297L34.9648 13.2645L25.8838 18.4539L16.8029 13.2645L25.5026 8.29297ZM15.4172 15.5517L24.5755 20.7853V31.1641L15.8209 26.1613C15.6117 26.0417 15.5048 25.98 15.4298 25.9308L15.4235 25.9267L15.423 25.919C15.4177 25.8277 15.4172 25.7017 15.4172 25.4554V15.5517Z" fill="#D3C017"/>
</svg>
