<svg width="152" height="40" viewBox="0 0 152 40" fill="none" xmlns="http://www.w3.org/2000/svg">
<g opacity="0.7">
<path d="M51.2229 28.7893C53.1361 28.7893 54.7092 27.8186 55.1982 26.3625V28.6205H58.0255V22.9228C58.0255 21.6356 57.0051 20.5383 55.6233 20.5383H51.5842V22.9228H54.4541C54.8155 22.9228 55.0494 23.155 55.0494 23.5137C55.0494 24.8854 53.2211 26.2148 51.3717 26.2148C48.9057 26.2148 46.9499 24.2945 46.9499 21.2347C46.9499 18.1748 48.9057 16.4022 51.4354 16.4022C53.3487 16.4022 54.6667 17.4363 54.9005 19.0189H58.068C57.8767 15.8536 55.1982 13.6801 51.4567 13.6801C47.5239 13.6801 43.91 16.1912 43.91 21.2347C43.91 26.2781 47.4176 28.7893 51.2229 28.7893Z" fill="#4C6379"/>
<path d="M59.2392 28.6205H62.1942V13.3635H59.2392V28.6205Z" fill="#4C6379"/>
<path d="M68.5682 28.7893C71.8632 28.7893 74.2229 26.468 74.2229 23.3027C74.2229 20.1373 71.8632 17.8161 68.5682 17.8161C65.2731 17.8161 62.9135 20.1373 62.9135 23.3027C62.9135 26.468 65.2731 28.7893 68.5682 28.7893ZM68.5682 26.257C66.9738 26.257 65.8896 25.0542 65.8896 23.3027C65.8896 21.5301 66.9738 20.3273 68.5682 20.3273C70.1626 20.3273 71.2467 21.5301 71.2467 23.3027C71.2467 25.0542 70.1626 26.257 68.5682 26.257Z" fill="#4C6379"/>
<path d="M80.8349 28.7893C84.0024 28.7893 85.8944 26.6157 85.8944 23.3027C85.8944 19.9896 84.0024 17.8161 80.8774 17.8161C79.5382 17.8161 78.4965 18.3226 77.9013 19.1033V13.3635H74.9464V28.6205H77.9013V27.4598C78.4965 28.2828 79.6019 28.7893 80.8349 28.7893ZM80.3672 26.257C78.7729 26.257 77.7312 25.0753 77.7312 23.3027C77.7312 21.509 78.7729 20.3273 80.3672 20.3273C81.9191 20.3273 82.982 21.509 82.982 23.3027C82.982 25.0753 81.9191 26.257 80.3672 26.257Z" fill="#4C6379"/>
<path d="M90.8408 17.8161C87.9072 17.8161 86.164 19.5254 86.0364 21.6567H88.6725C88.715 20.7704 89.374 19.9685 90.6707 19.9685C91.8825 19.9685 92.584 20.5805 92.584 21.4668C92.584 21.9099 92.3076 22.2476 91.7762 22.2476H89.9692C87.6308 22.2476 86.0577 23.5137 86.0577 25.6028C86.0577 27.4176 87.482 28.7893 89.5653 28.7893C91.0321 28.7893 92.2226 28.1351 92.584 27.1433V28.6205H95.5177V21.7833C95.5177 19.3777 93.5406 17.8161 90.8408 17.8161ZM90.3094 26.6579C89.4803 26.6579 88.885 26.1726 88.885 25.4762C88.885 24.6532 89.5228 24.1046 90.4156 24.1046H92.584V24.2523C92.584 25.6028 91.7549 26.6579 90.3094 26.6579Z" fill="#4C6379"/>
<path d="M96.6531 28.6205H99.6081V13.3635H96.6531V28.6205Z" fill="#4C6379"/>
<path d="M101.178 28.6205H107.258C110.404 28.6205 112.572 27.0167 112.572 24.2101C112.572 22.2687 111.424 21.0869 110.064 20.5594C110.935 20.0951 111.807 19.04 111.807 17.6473C111.807 15.1783 109.787 13.8489 107.088 13.8489H101.178V28.6205ZM104.324 19.4832V16.36H106.79C108.214 16.36 108.852 16.9298 108.852 17.9216C108.852 18.9134 108.214 19.4832 106.854 19.4832H104.324ZM104.324 25.8772V22.1632H106.981C108.746 22.1632 109.532 22.8384 109.532 24.0413C109.532 25.2441 108.746 25.8772 106.981 25.8772H104.324Z" fill="#4C6379"/>
<path d="M117.713 17.8161C114.779 17.8161 113.036 19.5254 112.908 21.6567H115.544C115.587 20.7704 116.246 19.9685 117.543 19.9685C118.754 19.9685 119.456 20.5805 119.456 21.4668C119.456 21.9099 119.18 22.2476 118.648 22.2476H116.841C114.503 22.2476 112.93 23.5137 112.93 25.6028C112.93 27.4176 114.354 28.7893 116.437 28.7893C117.904 28.7893 119.095 28.1351 119.456 27.1433V28.6205H122.39V21.7833C122.39 19.3777 120.413 17.8161 117.713 17.8161ZM117.181 26.6579C116.352 26.6579 115.757 26.1726 115.757 25.4762C115.757 24.6532 116.395 24.1046 117.288 24.1046H119.456V24.2523C119.456 25.6028 118.627 26.6579 117.181 26.6579Z" fill="#4C6379"/>
<path d="M123.355 28.6205H126.331V22.7962C126.331 21.4246 127.245 20.4328 128.542 20.4328C129.775 20.4328 130.604 21.3613 130.604 22.6485V28.6205H133.58V21.9943C133.58 19.5465 132.007 17.8161 129.584 17.8161C128.117 17.8161 126.926 18.4281 126.331 19.4621V17.9849H123.355V28.6205Z" fill="#4C6379"/>
<path d="M142.063 28.6205H145.634L141.021 22.1632L145.294 17.9849H141.552L137.832 21.6145V13.3635H134.856V28.6205H137.832V25.2863L139.023 24.1257L142.063 28.6205Z" fill="#4C6379"/>
</g>
<path d="M21.4695 7.88745C28.4333 7.88745 34.0782 13.5324 34.0782 20.4961V29.3222C34.0782 30.3254 33.6797 31.2876 32.9703 31.9969C32.2609 32.7063 31.2988 33.1048 30.2956 33.1048H22.0999V27.5734C22.0999 26.3113 22.1768 25.0038 22.8388 23.9295C23.3127 23.1596 23.9467 22.5007 24.6977 21.9974C25.4486 21.4941 26.2991 21.1582 27.1913 21.0125L27.4328 20.9734C27.5323 20.9394 27.6187 20.8751 27.6799 20.7895C27.7411 20.7039 27.774 20.6013 27.774 20.4961C27.774 20.391 27.7411 20.2884 27.6799 20.2028C27.6187 20.1172 27.5323 20.0529 27.4328 20.0189L27.1913 19.9798C25.8877 19.7669 24.6839 19.1498 23.7498 18.2158C22.8158 17.2818 22.1988 16.078 21.9858 14.7743L21.9467 14.5329C21.9127 14.4333 21.8484 14.3469 21.7628 14.2857C21.6772 14.2245 21.5747 14.1916 21.4695 14.1916C21.3643 14.1916 21.2617 14.2245 21.1761 14.2857C21.0906 14.3469 21.0263 14.4333 20.9922 14.5329L20.9532 14.7743C20.8075 15.6666 20.4716 16.517 19.9683 17.268C19.465 18.019 18.806 18.653 18.0361 19.1268C16.9619 19.7888 15.6544 19.8657 14.3922 19.8657H8.87592C9.20563 13.1951 14.7175 7.88745 21.4695 7.88745Z" fill="#F58A5C"/>
<path d="M8.86084 21.1268H14.3923C15.6544 21.1268 16.9619 21.2037 18.0362 21.8657C18.8759 22.3831 19.5828 23.09 20.1002 23.9297C20.7622 25.004 20.8391 26.3115 20.8391 27.5737V33.1051H12.6434C11.6402 33.1051 10.6781 32.7066 9.96874 31.9972C9.25936 31.2878 8.86084 30.3257 8.86084 29.3225V21.1268ZM34.0782 9.14857C34.0782 9.48297 33.9454 9.80368 33.7089 10.0401C33.4725 10.2766 33.1518 10.4094 32.8174 10.4094C32.483 10.4094 32.1623 10.2766 31.9258 10.0401C31.6893 9.80368 31.5565 9.48297 31.5565 9.14857C31.5565 8.81416 31.6893 8.49345 31.9258 8.257C32.1623 8.02054 32.483 7.8877 32.8174 7.8877C33.1518 7.8877 33.4725 8.02054 33.7089 8.257C33.9454 8.49345 34.0782 8.81416 34.0782 9.14857Z" fill="#F58A5C"/>
</svg>
