<svg width="36" height="36" viewBox="0 0 36 36" fill="none" xmlns="http://www.w3.org/2000/svg">
<path d="M4.5 10.4956L18 16.4956M31.5 10.4956L18 16.4956M18 32.9956V16.4956" stroke="black" stroke-linejoin="round"/>
<path d="M4.5 26.6062V10.886C4.5 10.6489 4.63964 10.434 4.85632 10.3377L17.7563 4.6044C17.9115 4.53545 18.0885 4.53545 18.2437 4.6044L31.1437 10.3377C31.3604 10.434 31.5 10.6489 31.5 10.886V26.6062C31.5 26.8433 31.3604 27.0582 31.1437 27.1545L18.2437 32.8878C18.0885 32.9567 17.9115 32.9567 17.7563 32.8878L4.85632 27.1545C4.63964 27.0582 4.5 26.8433 4.5 26.6062Z" stroke="black" stroke-linecap="round" stroke-linejoin="round"/>
<path d="M11.25 7.49658L24.3937 13.3382C24.6104 13.4345 24.75 13.6494 24.75 13.8865V19.4966" stroke="black" stroke-linecap="round" stroke-linejoin="round"/>
</svg>
