<svg width="36" height="36" viewBox="0 0 36 36" fill="none" xmlns="http://www.w3.org/2000/svg">
<path d="M31.1045 8.30127V11.3013H28.1045H31.1045" stroke="black" stroke-linecap="round" stroke-linejoin="round"/>
<path d="M11.3804 16.0897C11.3804 14.8732 12.3674 13.8862 13.5839 13.8862C14.8004 13.8862 15.7874 14.8732 15.7874 16.0897C15.7874 18.8437 11.3819 18.8437 11.3819 22.1047H15.7874" stroke="black" stroke-linecap="round" stroke-linejoin="round"/>
<path d="M23.841 18.0412L20.073 18.0007C19.86 17.9977 19.6875 17.8252 19.6875 17.6107V13.8877" stroke="black" stroke-linecap="round" stroke-linejoin="round"/>
<path d="M23.8345 13.9766V22.1066" stroke="black" stroke-linecap="round" stroke-linejoin="round"/>
<path d="M30.45 11.3031C28.0455 6.95008 23.373 3.99658 18 3.99658C10.2675 3.99658 4.00049 10.2651 4.00049 17.9961C4.00049 25.7271 10.2675 31.9956 18 31.9956C25.7325 31.9956 31.9995 25.7271 31.9995 17.9961" stroke="black" stroke-linecap="round" stroke-linejoin="round"/>
</svg>
