<svg width="36" height="36" viewBox="0 0 36 36" fill="none" xmlns="http://www.w3.org/2000/svg">
<path d="M28.4409 29.746H7.5592C6.45463 29.746 5.5592 28.8505 5.5592 27.746V13.7759C5.5592 12.6713 6.45463 11.7759 7.5592 11.7759H28.4409C29.5454 11.7759 30.4409 12.6713 30.4409 13.7759V27.746C30.4409 28.8505 29.5454 29.746 28.4409 29.746Z" stroke="black"/>
<path d="M11.0884 11.7753V6.84609C11.0884 6.51472 11.3571 6.24609 11.6884 6.24609H24.3116C24.6429 6.24609 24.9116 6.51472 24.9116 6.84609V11.7753" stroke="black"/>
<path d="M15.2354 6.24609V11.7753" stroke="black"/>
<path d="M18.0001 6.24609V11.7753" stroke="black"/>
<path d="M24.2205 21.4526C23.8387 21.4526 23.5293 21.1432 23.5293 20.7615C23.5293 20.3798 23.8387 20.0703 24.2205 20.0703C24.6022 20.0703 24.9116 20.3798 24.9116 20.7615C24.9116 21.1432 24.6022 21.4526 24.2205 21.4526Z" fill="black" stroke="black" stroke-linecap="round" stroke-linejoin="round"/>
</svg>
